<?xml version="1.0" encoding="UTF-8" standalone="no"?><svg xmlns="http://www.w3.org/2000/svg" viewBox="0 0 1029.71 985.81"><defs><style>.cls-1{fill:#d4a87f;}.cls-2{fill:#925f2d;}.cls-3{fill:#805126;}.cls-4{fill:#aa7536;}.cls-5{fill:#b38e5d;}.cls-6{fill:#72421f;}.cls-7{fill:#683914;}.cls-8{fill:#533724;}.cls-9{fill:#5d381f;}.cls-10{fill:#af9c78;}.cls-11{fill:#957c67;}.cls-12{fill:#a2816c;}.cls-13{fill:#5b453b;}.cls-14{fill:#7c6253;}.cls-15{fill:#977763;}.cls-16{fill:#fefefd;}.cls-17{fill:#fefefe;}.cls-18{fill:#461a00;}</style></defs><g id="Camada_2" data-name="Camada 2"><g id="Camada_1-2" data-name="Camada 1"><path class="cls-1" d="M532.47,59.84c14.63,2.93,29.28,5.79,43.89,8.82,14.94,3.1,29.84,6.38,44.77,9.56,2.9.62,5.38,1,7,4.46,15.59,32.48,32.16,64.51,47,97.33,13.57,30,31.78,57.07,49.57,84.48,15.45,23.83,30.93,47.64,46.64,71.3,2.46,3.7.91,6.7-.14,9.78q-14.72,42.84-29.72,85.57a10.11,10.11,0,0,1-1,1.69c-1.08,1.7-2.6,1.86-4.35,1.25a34.4,34.4,0,0,0-5.87-1.14c-4.15-.7-6.58-2.65-7.38-7.35-1.05-6.24-3.73-12.08-8.71-16.39a19.66,19.66,0,0,1-7-15.36c0-3.95-.6-7.42-3.33-10.61-2.38-2.8-2.43-6.8-3.91-10.16a18.65,18.65,0,0,0-7.07-8.76c-2.91-1.82-4.24-4.15-5-7.55-1.29-6.07-2.56-12.08-9.14-15.62-5.12-2.75-9-7.33-9.42-13.87-.12-2-.93-4.23-2.84-5-9.11-3.93-11.09-12-12-20.55a14.26,14.26,0,0,0-4.25-8.74c-3.21-3.3-5.49-7.06-5.13-12,.26-3.63-1.73-5.83-5-7.24-4.38-1.9-8.29-4.06-7.66-10.11a6.51,6.51,0,0,0-3.22-5.94c-4-2.12-5.74-5.8-7.86-9.35-5.3-8.89-11-17.53-15.6-26.85a18.61,18.61,0,0,1-2.06-5.61c-.5-3.7-2.13-6.06-6-6.88-2.71-.57-3.57-3-3.36-5.46.59-6.81-3.71-12-6-17.77-1.18-3-5-4.37-6.81-7.62a39.15,39.15,0,0,1-4.91-12.38c-.54-3-1.78-5.33-4.8-6.44-.78-.29-1.9-.7-2-1.37-1.21-7.4-8.89-9.64-12.16-15.4-2.79-4.92-8.23-7.65-10.74-13-1.37-2.92-2.81-5.59-2.66-8.89.21-4.73-1.51-8.12-6.51-9.16-2.83-.59-4.21-2.6-4.8-5.17-1.67-7.38-6.26-13.84-6-21.92.12-4.14-3.65-7.64-4.23-12.09C521.77,64.72,524.76,60.6,532.47,59.84Z"/><path class="cls-2" d="M22.39,367.9l6.64-19c1.88-2.67,2.14-5.92,3.22-8.87q2.36-7.07,4.7-14.12c2.31-3.39,2.95-7.4,4.15-11.2.24-4.27,2.92-7.75,3.82-11.81a2.27,2.27,0,0,0,.79-.56c1.29-1.38,0-4.59,2.73-4.66s3.8,2.45,5,4.41c1.95,3.25,4.57,6.15,5.31,10.06.35,1.87,2.06,2.44,3.49,3.28,4.5,2.66,8,5.86,7.37,11.84-.44,4.27,1.84,6.95,6,7.88s6.77,3.19,7,7.76c.19,3.48,2.3,5.89,5.26,7.36,6,3,8.19,8,8.82,14.5.59,6.17.38,12.71,4.76,18,1.2,1.45,2.23,2.79,4.23,3.15,1.82.33,3.64.95,4,3.15.41,2.44-2.17,2.58-3.33,4.05.91,2.24,3.9,1.75,5,3.69a24.89,24.89,0,0,0,6.51,14.71c1.67,1.9,2.3,4.4,3.25,6.7,2.13,5.16,4.8,10.29,6.57,15.32,2.37,6.72,6.37,11.42,10.44,16.75,3.5,4.59,8,9.07,8.81,15.4a3.26,3.26,0,0,0,1.63,2.43c5,2.58,6.85,8,10.56,11.76,2.82,2.85,3.43,6.72,3.31,10.69s.59,7.58,5.67,8.42c2.5.42,3.21,2.74,3.23,5a7.65,7.65,0,0,0,3.79,6.61,12.45,12.45,0,0,1,5.53,8,16.81,16.81,0,0,0,3.8,7c1.93,2.35,2.51,5.66,4.17,7.74,6.66,8.33,7.28,20.57,17.49,26.55,3.24,1.9,4.34,5.37,4.23,9.09-.09,2.81.53,5.25,2.85,7.1a6.85,6.85,0,0,1,2.23,3.82c1,4.14,2.51,7.75,6.91,9.69,2.45,1.08,3,3.94,2.93,6.5-.09,4.21,1.34,7.42,5.18,9.47,2.12,1.13,3.38,3.09,4.48,5.21,2.44,4.7,4.12,9.85,8,13.76a3.13,3.13,0,0,1,1,2.22c-.52,5.86,2.75,9.6,6.42,13.69,2.83,3.17,2.6,8.69,6.38,11.52,6.67,5,8.48,13.81,15.22,18.68a6.38,6.38,0,0,1,1.93,2.89c2.15,5.47,3.63,11.3,8.78,15a3.37,3.37,0,0,1,1.18,2.69c-.34,5.8,2.88,9.65,6.32,13.9,2.68,3.32,3.74,7.91,7.05,11.14,1.54,1.5,1.21,4.08.78,6.24-.39,1.94-1.3,2.57-3.55,2.07-9.81-2.14-19.47-5-29.51-6l.06,0c-2.83-1.51-6-1.37-9-2l.05,0c-3-1.29-6.23-1.42-9.39-1.95-14.13-2.86-28.28-5.65-42.39-8.6-8.1-1.69-16.16-3.63-24.23-5.46,3-2.34,6.39-1.6,9.53-.72,9.78,2.72,19.87,4,29.67,6.61,4.92,1.33,5.65.45,4.2-4.2-.2-.64-.17.16-.14-.47.27-7.57-3.2-12.27-10.23-15.22-3.68-1.55-4.08-6.27-5.61-9.71-1.39-3.11-2.82-5.94-6-7.61-2.4-1.25-3.36-3.66-3.52-6.26-.17-2.83-1-5.1-3.56-6.72-3.21-2-3.66-5.4-3.54-8.82s-.47-6.13-4.48-7.15c-3.67-.94-4.65-4-4.5-7.45.16-3.7-.62-6.72-4-9-2.66-1.84-3.06-5.11-3-8.14.1-4.29-1.8-6.21-6-6.91-8.4-1.4-8.38-1.58-9.14-10.05-.6-6.66-1.36-13.13-6.44-18.36-2-2.11-3.83-4-6.84-4.48s-5.23-2.41-5.37-5.65a23.58,23.58,0,0,0-2.81-10.47,10.14,10.14,0,0,1-1.23-5.31c.27-5.07-.73-9-6.31-10.9-2.66-.89-2.73-3.88-2.85-6.45-.34-7.34-.42-7.4-7.42-8.58-8.37-1.41-8.68-1.61-8.52-10.21.1-5.52-1.31-10.9-1.14-16.41.08-2.56-1.62-3.87-3.74-4.75-3.44-1.42-5.47-4-7-7.4-2.23-5-4.79-9.88-10.38-12.23-2.53-1.06-3.34-3.56-3.66-6.15-.23-1.8,0-4-1.51-5.14-4-3.06-4.84-7.37-5.24-11.9-.33-3.6-2.31-5-5.77-5.6-9.57-1.63-9.7-1.76-9.54-11.25a21.12,21.12,0,0,0-5.47-15c-3.71-4.3-7.16-9-8.14-15.12-.67-4.2-3-8.08-7.83-9.5-3.12-.92-4.21-3.63-4.44-6.61-.2-2.49-1-4.4-3.36-5.65-2.81-1.48-2.68-4.34-2.77-7-.23-7-.23-7-6.66-8.73A5.57,5.57,0,0,1,22.39,367.9Z"/><path class="cls-2" d="M264.89,718.52c4.46-.06,8.75,0,13.18,1.61,5.35,1.9,11.18,2.4,16.77,3.65,1.31.29,2,0,2-1.21,0-2.27,1.1-5.24-1.11-6.58-6.13-3.71-5-12.8-12.09-15.76-1.41-.59-.69-3.09-.67-4.72,0-2.53.33-5.53-1.8-7-4.5-3.06-6.3-7.27-7.52-12.31-.75-3.08-2.31-6.35-6.24-7.11a1.64,1.64,0,0,1-1.05-1c-2.31-8.6-9.7-13.39-14.81-19.89-1.42-1.8.23-5-1.63-6.6-4.71-4.09-6-9.24-7.92-15-2-6-6.33-12.07-9.75-18.05a4.81,4.81,0,0,0-2.27-1.87c-4.73-1.89-6.31-5.41-6-10.3.19-3.3-.39-6.36-4.69-6.9-1.78-.22-2.65-1.72-3.29-3.39-1.55-4-1.71-8.69-6.1-11.41-1.73-1.08-.84-3.76-.81-5.7.08-4.45-1.69-7.37-5.8-9.47-5.4-2.77-6.79-8.71-9.24-13.67-1.52-3.09-1.86-6.8-5.51-8.51a2.16,2.16,0,0,1-1.18-1.49c.32-8.29-8.84-12.34-9.08-20.41,0-.83-1.43-1.74-2.35-2.39-3.59-2.56-6.89-5.14-5.94-10.39a2.43,2.43,0,0,0-2.79-2.8c-5.77.37-6.2-3.82-6-7.6.6-10.42-6.17-16.36-12.95-22.32a7.65,7.65,0,0,1-2.7-3.42,40.46,40.46,0,0,0-15-21.84c-.4-.3-1-.67-1-1.06-.72-6.61-4.77-11.82-7.19-17.7-2.25-5.44-3.47-11.15-7.35-16-2.81-3.53-6.12-7.6-3.87-12.94l.57-.49c4.92.06,8.7,3.07,12.69,5.25,22.9,12.5,46,24.71,68.83,37.27,1.74,1,3.6,1.73,4.93,3.31a17.34,17.34,0,0,0,5,4.6c3.1,1.72,4.84,4.66,2.86,8.42-1.63,3.1-1.31,5.67,1.61,7.87,1.76,1.32,2.62,3.38,3.85,5.14,2.7,3.87,5,8.14,10.09,9.8,3.86,1.25,5,4.67,4.76,8.46s1.49,6.12,4,9a47.76,47.76,0,0,1,11.81,24.26c.52,3.15.86,5.76,4.22,7.16,3,1.24,3.06,4.19,2.9,6.87-.27,4.51.8,8.13,5.1,10.46A7.4,7.4,0,0,1,258,550a9.94,9.94,0,0,0,5.43,7.88c3.09,1.72,4.55,4.49,6,7.62,3.39,7.2,8.05,13.75,11,21.22a3.78,3.78,0,0,0,2.52,2.3c5.18,1.28,6.51,5.07,6.72,9.76a26.25,26.25,0,0,0,3.77,11.74c.66,1.17,1.14,2.51,2.41,3.08,5.74,2.55,8.29,7.86,11.24,12.82.43.71.55,1.75,1.22,2.15,5.67,3.34,5.1,8.82,4.91,14.14-.12,3.29,1,5.43,4,7.31,5.82,3.65,9.11,9.54,11.76,15.68,1,2.22,1.95,4.15,4.05,5.46,4,2.51,5.87,6.65,7.95,10.63,2.48,4.76,5.23,9.35,8.09,13.89,3.11,4.94,8,9.27,8.73,15.7.44,4,2.81,7.46,3.73,11.36.46,2,2.09,2.9,3.75,3.75A6.45,6.45,0,0,1,369,734c-1,4.89.87,8.23,4.37,11.37,3.26,2.91,2.79,4.25-1.53,6.2-4.78-1.4-9.62-2.62-14.33-4.23-12.27-4.19-24.59-8.31-36.72-12.9A366.71,366.71,0,0,0,264.89,718.52Z"/><path class="cls-3" d="M22.39,367.9c1.79.24,3.48,1.55,5.32.89,4.52-1.6,5.11,1.49,5.46,4.57a50.78,50.78,0,0,1,0,7c0,2.38.31,4.26,3.27,4.6s2.71,2.83,2.73,5c0,3.78.75,6.36,5.52,7.23,5,.92,6.84,6.46,7.08,10.4.38,6,4.08,10.1,7.26,13.61a21.81,21.81,0,0,1,6.17,16.52c-.22,7.84,0,7.84,7.58,9.49,7.33,1.58,7.71,1.82,8.25,10.1.19,3.08.7,5.45,3.7,6.91,2,1,2.52,2.9,2.41,5.08-.21,4,.8,6.46,5.32,8.09s6.85,6.75,8.43,11.26c1.49,4.24,4.08,6.78,8.12,7.93,2.41.68,3.21,2,3.09,4.34-.37,7,1.71,13.83,1,20.82-.36,3.58,1,5.19,4.81,5.08a39.4,39.4,0,0,1,7.35,1,4.15,4.15,0,0,1,3.81,4.46,45.54,45.54,0,0,1,0,5.48c-.36,3.51,1.29,5.42,4.56,5.89s4.54,2.29,4.48,5.44c-.09,5,0,9.83,3.42,14.12,1,1.27.57,3.85.53,5.82-.08,3.62,1.28,5.71,5.17,5.69,6.62,0,7.46,6.43,10.65,10,3.95,4.44,2.47,10.7,3,16.16.38,3.67.75,6.15,5.15,6,1.61-.05,3.23.57,4.86.79,3.45.46,5.38,2,5.19,5.87-.22,4.46-.39,8.88,5.12,11.07,2.76,1.1,1.93,4.39,1.75,6.78-.36,4.78.5,8.26,6.34,8.34,2.41,0,2.64,2,2.74,4,.13,3-1.37,6.94.69,8.7a20.32,20.32,0,0,1,7.41,14.34,1.55,1.55,0,0,0,.89,1.13c6.63,1.32,7.13,7.48,8.93,12.12,1.7,4.36,4.37,7,8.5,8.16,3.27.91,4.53,3.09,5.2,6,.86,3.74-.38,7.79,2.85,11.25,1.5,1.62-.89,2.94-3,3.18-3.29.37-6.12-1.31-9.18-1.93-7.24-1.48-14.6-2.53-21.71-4.49A39.53,39.53,0,0,0,180,700.54c-10.57-2.1-21.14-4.23-31.72-6.28-2.18-.43-2.76-2.15-3.55-3.78-20.43-42.05-40.76-84.16-61.34-126.14-7.1-14.48-17-27.31-25.68-40.84-18.68-29-37.6-57.88-56.51-86.76a6.15,6.15,0,0,1-.64-6.05C8,410.5,14,389.81,22.18,369.87A7.05,7.05,0,0,0,22.39,367.9Z"/><path class="cls-1" d="M368.91,10.22c7.85,2.62,15.71,5.21,23.54,7.87q13.8,4.68,27.56,9.44c2.6.9,5.16,1.93,7.74,2.9,4.07,3.25,5.84,7,6.9,12.57a28,28,0,0,0,8.76,15.09c3.32,2.92,4.77,8,4,12.87-.69,4.44.43,7.91,4.49,10.15,2.52,1.39,3.19,3.72,3.14,6.34a7.46,7.46,0,0,0,3.8,7.07,9,9,0,0,1,4.22,6,6.63,6.63,0,0,0,1.14,2.75c8.44,10.73,13.65,23.46,21.54,34.52,1.35,1.9,1.13,4.1,1.34,6.24.43,4.59.63,8.52,6.32,11,4.6,2,6.51,8.17,8.82,12.88,1.87,3.82,3.61,7.34,7.44,9.63,2.64,1.58,3.25,4.5,3.32,7.44,0,2.43.52,4.69,2.74,6.08,3.37,2.1,4.48,5.25,4.24,9-.24,3.87.53,7,4.95,7.92a2.63,2.63,0,0,1,2,1.36c2.33,6.72,8.72,10.16,12.53,15.67a10.16,10.16,0,0,1,1.48,6.69c-.24,4,1.17,6.88,4.92,8.34s5.34,4.21,5.14,8.16c-.07,1.33-.14,3,.79,3.84,4.4,4.17,6.17,10,9.43,14.71,4.54,6.58,9,13.17,12.85,20.14a6.54,6.54,0,0,1,1.13,2.21c1,8.91,7.7,13.43,14,18.18a6.67,6.67,0,0,1,2.69,5.58c.15,3.51,1.2,6.48,4.42,8.43,2.28,1.37,2.53,3.75,2.56,6.15.06,4.49-.16,9,.09,13.48.23,4,.6,7.81,4.7,10.36,2.9,1.81,1.55,4.23-.58,6.11-2.15.49-3.87-.68-5.59-1.59-18.74-9.88-37.18-20.33-56-30-1.61-.83-3.27-1.75-3.35-3.94,1.53-2.7,1.31-4.9-1.46-6.8a7.53,7.53,0,0,1-3.26-7.42c1-8.14-4.33-13.56-8.21-19.54-2.16-3.32-6.37-5.3-8.15-8.62-3.06-5.73-6.72-11.5-6.64-18.48a40.23,40.23,0,0,0-1.05-7.4,5.16,5.16,0,0,0-2.38-3.63c-7.44-4.82-12.55-11.24-13.82-20.27a6.15,6.15,0,0,0-2.71-4.05,10.69,10.69,0,0,1-4.56-6.9c-.14-.83-.37-2-1.07-2.13-5.15-.62-5.27-5.41-7.3-8.58-3.65-5.71-7-11.63-11.79-16.51-2.14-2.16-2.51-5.13-2.24-7.95.6-6.35-4-10.67-7.58-13.78-4.7-4.08-5.55-9.46-8.37-14.07a1.79,1.79,0,0,1-.17-1c.29-10-3.94-17.47-12.29-23.16-4.13-2.82-6.22-7.74-7.86-12.51a12.52,12.52,0,0,0-5.6-7.3,11.43,11.43,0,0,1-6.07-9.21c-.2-2.48-2.05-4.08-3-6.1-2.9-6.33-10.09-9-12.47-15.9-1.2-3.43-2.87-6.71-3.33-10.35-.41-3.31-1.82-5.58-5.14-6.6-3.52-1.07-4.43-3.91-5.12-7.24-2.27-11-4-22.11-11.82-31.16C371.84,21.81,371,17,367,14,365.23,12.6,366.56,10.65,368.91,10.22Z"/><path class="cls-4" d="M82.85,145.05q26.15-12.88,52.29-25.76c1.61-.79,3.32-1.4,5-2.09,2.23-1.46,3.11,1.18,5.12,1.69-.79-3-.07-5,3.43-4.53,3.33.42,5.08,2.61,4,5.54-2,5.54.15,8.46,5,10.54,2.82,1.2,4.18,3.87,4.76,6.68,1,4.72,2.71,9.3,2.85,14.15.1,3.85,1.78,6.42,5.46,7.36,3.91,1,5.84,3.43,6.48,7.28.69,4.15,1.9,8.06,5.28,11,1.93,1.69,1.78,4.21,1.81,6.54,0,2.83,1.09,4.78,4,5.49,2,.49,4,1.54,4.73,3.39,1.72,4.62,5.9,7.54,7.78,12a3.72,3.72,0,0,0,1.38,2c5.42,2.64,6.37,7.65,7,12.87.23,1.91,1,3.65,2.8,4.44,3.7,1.61,4.43,4.63,4.26,8.2a7.12,7.12,0,0,0,4.08,7.3c4.5,2.4,5.24,7.58,7.16,11.6,2.9,6.06,5.94,11.83,10.77,16.51,3.87,3.74,6.6,7.87,6,13.59a7.33,7.33,0,0,0,1.28,5.24,14.14,14.14,0,0,1,2.81,8.34c.11,2.59,1.5,4.67,2.94,6.76,2,2.86,4,5.75,4,9.48-1.2,2.68-3.88,3.6-6.15,4.79-15,7.88-29.45,16.66-44.44,24.51-1.56.82-3.06,2.21-5.05,1-.43-.51-.67-1.29-1.2-1.57-7.9-4.19-7.75-11.73-7.79-19,0-3.82-.59-6.45-4.73-8.13s-3.45-6.82-5-10.39a7.49,7.49,0,0,1-.32-3c.13-8.66-.12-8.09-7.62-10.21-4.3-1.21-6.12-3.67-6.48-8.18-.62-7.71-4.23-14.57-8.26-20.92-2.05-3.22-6.51-4.39-10-6.32-1.63-.91-3.43-1.7-4-3.51-3.12-9.32-10.35-16.9-12.26-26.48-1.55-7.76-5.43-13.43-10.11-19.36-3.81-4.85-7-10.56-7.37-17.17-.07-1.16-.27-2.45-1.48-3-7.45-3.33-9.89-9.66-10.39-17.18-.11-1.73-.36-3.43-2.39-3.91-8.39-2-12.35-7.2-11.83-15.83a9.68,9.68,0,0,0-.54-2.51C86.45,145.88,84.81,146.81,82.85,145.05Z"/><path class="cls-5" d="M191.83,92.13c11.68-6.48,24-11.7,35.07-19.43a285.93,285.93,0,0,1,25.85-16.53,9.61,9.61,0,0,0,3.08-1.61c3-2.79,5.38-1.77,7.57.92a10.6,10.6,0,0,0,6.23,3.69c4.93,1.18,8.66,4.06,9.86,9.38.44,2,1.15,3.82,1.62,5.76.72,3,2.42,5,5.54,5.74,5.14,1.15,8.29,3.72,7.75,9.63-.31,3.46,1.86,6,4.67,7.74a6.17,6.17,0,0,1,3.15,5.81,12.8,12.8,0,0,0,2.94,8.78,9.66,9.66,0,0,1,2.06,7c-.22,3.41,1,5.64,4.36,6.87,6.61,2.4,8.85,7.15,10.21,14.23a52.8,52.8,0,0,0,7.55,18.31c2.07,3.14,4.33,5.85,5.59,9.62a15.19,15.19,0,0,0,8.69,9.72c1.43.57,2.83,1.07,3.15,2.82-.83,6.49-5,11.49-7.94,17-10.63,19.73-21.18,39.5-31.89,59.19-1,1.83-1.48,4.17-4.05,4.68a9.9,9.9,0,0,1-3.32-1c-2.34-1-4.65-2.23-5.05-5-.41-3,2.57-3.44,4.29-5-3.67-3.28-5.58-8.06-10.76-9.89-3-1.08-3.6-4.71-3.33-7.78.39-4.37-1.89-6.23-5.64-7.49-7.23-2.41-7.29-2.52-7.4-10.07-.09-5.61-2.59-10.61-3.78-15.93-.68-3-4.41-4.36-7.29-5.62a12.11,12.11,0,0,1-6.18-6.11c-2.24-4.42-4.64-8.82-9.13-11.58-2.46-1.5-3.24-4-3.59-6.81-.63-4.95-2.34-9.3-7-12-1.93-1.13-2.95-3.16-3.91-5.08a31.49,31.49,0,0,0-5.39-8.33c-.35-.36-.79-.78-.83-1.23-.84-8-6-14.78-6.81-22.75-.32-3.22-1.16-5.35-4.42-6.28a9.32,9.32,0,0,1-6.34-5.83c-2.52-6.15-7.28-10.41-12.78-13.89C193.44,93.24,192.4,93.05,191.83,92.13Z"/><path class="cls-1" d="M368.91,10.22c-2.76,2.28-1.55,4,1,5.07,2.74,1.18,4.42,2.79,4,6a3.54,3.54,0,0,0,1.48,3c6,5.38,7.77,12.65,9.69,20.12,1.17,4.58,3.07,8.87,3,13.79,0,2.1,1.5,3.74,4.18,4.17,3.36.54,5.66,2.37,5.6,6.4-.11,6.62,4.5,11.58,6.6,17.43.1.3.44.74.64.72,7.57-.67,5,8.56,10.16,10.41,1.65.59,1.58,2.75,1.51,4.45-.17,4.41,2.37,7.46,5.9,9.06,3,1.36,4.25,3.38,5.19,6.14,3,8.91,8.18,16,16.84,20.41,3.71,1.89,2.84,6.39,2.79,9.39-.13,7.28,4.17,12.91,5.86,19.43.08.31.35.85.48.83,7-.75,4.42,8,9.55,9.5,2.18.65,1.29,3.85,1.31,5.95,0,4,.61,7.18,4.38,10.25,3.09,2.53,5.31,6.93,7.35,10.71,1.65,3,5,5.55,4.53,9.68-.08.74.86,1.8,1.67,1.51,4.55-1.63,4.44,1.36,4.6,4.34.05.95.35,2.42,1,2.73,6.06,3,5.85,9.29,8.15,14.35,2.45,5.37,5.88,10.21,11.76,12.76,4.31,1.87,3.34,6.61,3.25,9.65-.22,7.52,4.26,13.23,6.1,19.89.71,2.55,3.68,3.19,5.49,4.73,4.93,4.17,6.25,10.67,10.85,15,2,1.87.88,5.13.75,7.72-.21,4.16.63,7.33,4.64,9.55,4.29,2.38,1.78,4.72-.63,6.79-2.23,1-3.68-.29-5.07-1.74-.31-2.23-1.51-2.79-3.51-1.83-5.8-1.3-10.53-4.87-15.64-7.57-8.53-4.51-16.92-9.3-25.58-13.57a23.36,23.36,0,0,1-10.64-10.07c-15-27.47-30.34-54.71-45.48-82.09s-30.16-54.43-45.32-81.6c-.89-1.6-1.92-3.14-2-5,.12-1.47,1.37-2.55,1.64-4.32-1.94-.19-3.91-1.55-4.75,1.46a7.93,7.93,0,0,1-2.47,2.65c-3.18,2.14-5,.33-5.17-2.54A18.67,18.67,0,0,0,370,104.34c-1.62-1.88-1.42-4.7-1.43-7.21a32.58,32.58,0,0,0-.75-8.4c-1.06-4-3.08-6.93-7.27-8-4.44-1.19-7.2-3.68-7.28-8.73a13.36,13.36,0,0,0-3.38-8.65c-2.14-2.47-2.54-5.75-3.4-8.76s-2.25-5.5-5.43-6.6-4.32-3.63-4.48-7c-.44-8.81-6.64-14.86-10.85-21.84-.69-1.15-2.27-1.28-3.55-1.64-2.86-.79-3.91-2.38-2.21-5.14C325.54,8.58,331.17,4.81,336.77,1a4.78,4.78,0,0,1,4.66-.67C350.57,3.67,359.75,6.93,368.91,10.22Z"/><path class="cls-5" d="M191.83,92.13c4.19,0,6.9,2.21,9.45,5.39,3.12,3.88,7.27,6.89,8.27,12.29.28,1.55,2.5,2.14,4.13,2.4,4.56.72,5.9,3.4,5.4,7.73-.39,3.38-.05,6.65,3.48,8.64,1.95,1.09,1.51,3.2,1.43,5-.21,4.54.71,8.55,4.44,11.57,1.33,1.08,1.8,2.73,2.54,4.22,1.59,3.18,3.05,6.13,6.65,8.17s5.1,6.46,5.29,10.68a8.65,8.65,0,0,0,4.77,7.95c4.22,2.51,6.23,7.14,8.2,11.46a8.81,8.81,0,0,0,4.68,4.64c4.69,2.3,9.34,4,9.89,11.21.41,5.37,3,10.72,2.57,16.46-.12,1.7.83,2.74,2.57,3.13s3.5,1,5.24,1.5c3.68,1.11,5.82,3,5.2,7.44-.69,4.84.89,8.57,6.54,9.18a3.17,3.17,0,0,1,2.91,2.41,5.68,5.68,0,0,0,4.46,5.2,2.21,2.21,0,0,1,1.58,2.31,1.7,1.7,0,0,1-1.85,1.35c-2.12-.37-4.09.26-4.26,2.25-.19,2.35,1.94,3.61,4.07,4.34a7,7,0,0,1,3.42,1.91c1.06,1.06.59,2.18,0,3.19-5.27,9.25-9.78,18.91-15.18,28.09a10.36,10.36,0,0,1-3.79,3.9c-8.72,4.85-17.35,9.87-26.22,14.43-.84.44-1.78,1-2.74.14-1.88-3.63-3-7.72-6.22-10.56-.13-.11-.29-.27-.29-.4-.09-7.14-5.93-12.81-5.36-20,.37-4.79-2-7.92-4.9-10.87a57.94,57.94,0,0,1-11.87-17.83c-1.84-4.21-2.44-10.7-9.22-12.3-2.82-.66-2.16-4.52-2.06-7.14.12-3.18,0-5.67-4-6.8-4.69-1.33-3-6.23-3.77-9.47s-1-5.79-4.69-6.6c-.59-.13-1.42-.71-1.51-1.2-.94-5-6.43-7-7.54-12a6.53,6.53,0,0,0-6.3-5.47c-3.1-.15-4.33-2.17-4.19-5.07.18-3.73-.15-6.8-3.72-9.47-2.48-1.86-2.8-5.84-3.29-9.13s-1.53-5.75-5.57-6.45-6.55-3.26-6.51-8c0-5.47-1.93-10.69-3.18-16-.59-2.5-2.31-4.07-5-5-5.25-1.91-6.39-4.93-4.53-10.08,1.48-4.09.65-5-5.15-5.39-.82,1.37.7,2,1.07,2.94a2.12,2.12,0,0,1-.87,3,1.91,1.91,0,0,1-2.9-1c-.7-1.61-1.24-3.11-3.32-3.14C157.14,108.39,174.35,100,191.83,92.13Z"/><path class="cls-4" d="M371.81,751.53c2.9-2,3.62-3.53-.06-6-3.37-2.29-5.84-5.58-4.12-10.63,1.11-3.25.31-6.41-4.05-7.72-5.16-1.55-3.35-7.38-5.75-10.79a12.78,12.78,0,0,1-1.77-6.15c-.21-2.74-1-4.82-3.63-6-.3-.13-.75-.36-.77-.58-.51-5.72-5.46-8.85-8.09-13.31-3.84-6.53-4.66-15.37-12.89-19a3.5,3.5,0,0,1-2.1-2.66c-.79-5.39-4.63-9-7.37-13.32-1.46-2.27-3-4.28-5.91-4.94-2.43-.56-3.44-2.38-3.39-4.86s0-5,0-7.48c0-3,.61-6-3.59-7.09-1.6-.39-1.66-2.72-2.5-4.09-2.84-4.57-5-9.46-10.62-12-3.86-1.76-4.49-6.9-6.11-10.7a15.23,15.23,0,0,1-.89-5.81c.05-4.67-1.26-7.64-6.43-8.09-1.47-.13-2.25-1.7-2.86-3.18-2.57-6.28-6.16-12.06-9.24-18-2.67-5.17-6.46-8.62-9.92-12.81-4-4.84-5.59-11.55-11.09-15.81-1.89-1.46-.64-5.09-.64-7.73s-.28-4.84-3.75-5.25c-2.2-.26-3.2-2.08-3.29-4.36-.29-7.82-3.29-14.51-7.68-21-2.12-3.14-3.49-6.34-7.16-8.21-2.14-1.09-1.16-4-1.08-6.05.2-5-.69-8.26-6.73-9.57-3.8-.82-6-5.64-8-9.16-1.16-2.05-2.09-4.38-4-5.39-4.52-2.38-3.71-5.87-1.64-8.72,2.81-3.89-.27-6.79-2.14-7.18-3.38-.69-3.82-3.29-5.49-5.08,1.91-1.42,3.53-.11,5,.72,20.26,11.13,40.63,22,61,33a12,12,0,0,1,4.95,4.08,3.12,3.12,0,0,1-1,4.4c-3.05,2.19-2.75,5-1.71,8,2,5.91,7.17,10,9.3,15.8a1.65,1.65,0,0,0,1.16.9c8.11,1.82,10.76,9.42,15.61,14.69,1.3,1.41,1.25,3,.63,4.66-.71,1.9-.63,3.91-.81,5.9-.33,3.7,1.15,6.08,4.66,7.21a10.14,10.14,0,0,1,7.21,7.54,9.62,9.62,0,0,0,4.31,5.93,9.28,9.28,0,0,1,4.74,9.26c-.63,6.22,1.78,11.8,3.4,17.5,1.11,3.9,4.93,6.19,7.83,8.77,6.76,6,7.66,9.44,3.34,17.36a1.8,1.8,0,0,0,1.78.69c5.36-.55,8.42,1.65,9.52,7.06a10.82,10.82,0,0,0,4.28,6c4.63,3.62,8.34,8,12,12.62a11.53,11.53,0,0,1,2.91,8.18c-.35,6,.64,11.93,1,17.9.15,2.54.95,4,3.74,4.22,7.17.51,11.61,5.28,15.24,10.7,2.47,3.69,3.74,8.11,6.34,11.83,1.86,2.68,1.77,6,1.66,9.2s1.1,4.81,4.27,5.67c6.27,1.69,6.62,2.23,6.68,8.58,0,3.29.59,6.21,2.92,8.71a8.93,8.93,0,0,1,2.08,6.52c-.08,4.41,1.73,7.25,6.17,8.39,3.41.88,6,3.36,5.56,6.78-1.13,9.83,5.14,16.35,9.72,23.68.59.93,1.84,1.82,1,3s-2.08.5-3.19.25q-23.15-7.65-46.29-15.35A9.41,9.41,0,0,1,371.81,751.53Z"/><path class="cls-1" d="M532.47,59.84c-9.14,3.5-11.59,11.62-5.92,19.69.75,1.07,2.23,1.91,2,3.31-1.44,8.94,4.42,16,6,24.12.44,2.19,1.45,2.93,3.57,3.32,5.5,1,7.67,3.35,7.42,8.74-.33,7.32,3.43,12.36,8.32,17,2,1.94,4.3,3.72,5.39,6.45s2.52,4.95,6,5.15c1,.06,2.73,1.14,2.76,1.81.24,5.59,3.39,8.73,8.16,10.87,1,.46,1.42,1.76,1.45,3,.16,6.52,3.95,11.63,6.71,17.14a2.64,2.64,0,0,0,2.29,1.66c1.25.08,2.58.58,2.78,1.76,1.08,6.53,7.07,11.4,6.22,18.57-.41,3.44.34,5.82,4.63,5.84,2.37,0,3.88,1.82,4.24,4.21a34.21,34.21,0,0,0,7.64,16.94c1.21,1.47,1.67,3.57,2.42,5.4.44,1.07.44,2.67,1.2,3.18,5.32,3.58,6.69,9.55,9.33,14.76.71,1.4,2.18,1.83,3.57,2.49,3.71,1.76,6.1,7.09,5.2,11.31a2.6,2.6,0,0,0,1.51,3.25,19.75,19.75,0,0,0,3.94,2c6.5,1.64,8,6.14,7.25,12.07-.43,3.31,2,5.71,3.91,7.12,5.88,4.4,6.5,11.22,6.6,16.89.13,6.66,4.09,9.27,8.15,11.58s5.66,5.22,5.92,9c.51,7.34,6.24,10.08,11.19,13.36,2.07,1.37,3.82,2.4,4.2,5,.61,4.24,3.59,7.86,3.11,12.44-.19,1.76,1.53,2.39,2.86,3.07,6.82,3.49,9.11,10,10.95,16.71.3,1.11.05,2.49,1.08,3.2,4.41,3,3.94,7.53,4,12.05A18,18,0,0,0,715,408.11a27.69,27.69,0,0,1,9.39,18.48c.15,1.58.25,3.05,2,3.65,4.58,1.61,9.22,3,14.17,2.59-4.07,13.63-8.78,27-13.93,40.28-3.34-1.35-5.19-3.85-6.14-7.31-.84-3.05-1.49-6.14-2.31-9.19s-2.06-5.82-5.45-7.19c-3.05-1.23-3.69-4.14-3.53-7.11.21-4-.47-7-4.87-8.63-3.82-1.44-4.1-5.42-4.09-8.95s-.48-6.08-4.09-7.67c-2.78-1.23-2.89-4.18-3-6.92-.24-6.64-.58-7-6.67-8.37-8.28-1.85-8.34-1.85-9.32-10.54a5.5,5.5,0,0,0-3.12-4.72c-3.31-1.7-4.63-4.56-4.85-8.14-.23-3.82-1.23-7.56-1-11.42.05-1.17.14-2.84-.75-3.29-4-2-5.5-6.68-9.16-8.87s-5.28-4.9-5-9c.26-4.3-1-7.85-4.85-10.23-1-.62-2.12-1.54-2.21-2.63-.74-9.4-10.06-12.55-14.09-19.53-3.27-5.67-9.2-9.7-10.28-16.71-.1-.65-.28-1.5-.77-1.81-8.3-5.38-7-16.69-14.21-22.82-2-1.71-1.59-4.64-1.51-7.12.11-3.3-.74-5.78-4.13-7.14s-3.79-4.25-3.9-7.43c-.22-6.71-.62-7.1-7.13-8.53-8.1-1.77-7.79-1.81-9-10.4-.85-6.16-5.41-10.88-7.78-16.51-1-2.43-2.93-4.45-2.06-7.39a1.83,1.83,0,0,0-.45-1.87c-4.31-3.48-5-9.72-10.15-12.7-3.44-2-4.41-6.19-6.22-9.47-2.73-5-6.39-9.79-5.29-16.15.34-1.95-.92-3.43-2.69-4.4-3.64-2-6.73-4.81-10.62-6.5a10.1,10.1,0,0,1-6.53-10.72c.5-6.93-2.18-12.26-8-16a8,8,0,0,1-3.9-7.61,9.7,9.7,0,0,0-4.36-9.42,7,7,0,0,1-2.7-4.11c-1.17-4.83-1.89-9.7-7.25-12.26-2-.94-1.82-3.81-1.69-6,.24-4-.58-7.17-4.69-8.94-2.11-.91-3-3.11-3.51-5.23-.73-2.77-2.33-5-3.65-7.5-2.71-5.09-4.77-10.43-9.24-14.46-1.37-1.23-1.37-3.68-.54-5.69l28.84,6c-1.53,2.62-1.17,4.32,2.23,4.41,3.09.09,6.3.62,8.88-1.82Z"/><path class="cls-1" d="M602.75,356.87c1.45-2.43,2.39-3.95-1.6-5.63-3.52-1.48-3.25-6.25-3.47-9.8-.32-5-.08-10-.09-15,0-1.67.22-3.65-1.78-4.23-4.5-1.32-5-5-5.14-8.65-.1-3.06-.23-5.14-4.14-6-3.36-.79-4.19-5.4-7.16-7.31-3.86-2.47-4-6.45-5.31-10.35-1.87-5.67-5.77-10.69-9-15.89-2.75-4.47-8.51-7.25-7.62-13.78a2.21,2.21,0,0,0-1-1.61c-5.25-3.05-7.83-7.34-6.89-13.58.3-2-1.47-2.59-3.13-3.23-4.69-1.8-7.92-4.58-6.84-10.4.56-3-1.3-5.12-3-7.74-2.95-4.7-9.95-6.1-10.08-12.85-.05-2.12-2.2-1.73-3.51-2-3.24-.76-4.72-2.42-4.44-6,.36-4.64.78-9.41-5.1-11.6-2.12-.79-2-3.3-1.81-5.31.28-4-.8-7.12-4.9-8.8a7.4,7.4,0,0,1-4.46-5.63c-1.17-5.71-6.24-9.33-8-14.76a2.08,2.08,0,0,0-1.44-1.24c-7.82.2-7.15-6.09-7-10.46.22-6.78-4.49-11.1-7.18-16.15-1.52-2.87-4.31-6-5.51-9.05-3-7.52-9.78-12.75-11.77-20.74a5.53,5.53,0,0,0-3.34-3.56c-3.75-1.51-4.73-4.32-4.4-8,.25-2.68-.35-4.42-3.32-5.75-4.33-1.93-5.08-6.08-4.54-10.61.66-5.55-.28-10.59-5.66-13.78-.79-.48-1.79-1.4-1.86-2.18-.43-4.93-4-8.21-6.15-12.2-.53-1-1.43-2-.43-3.16,3.89-4.71.24-5-3.21-5.61-3.25-.54-2.93-2-.83-3.82l32,11.12c.59,2.62,1.57,4.37,4.75,5.12,5,1.19,6.45,4.22,5.21,9.33-.65,2.65,0,4.51,2.26,6,4.84,3,8.65,6.7,8.27,13.14-.12,2.15,1.37,3.73,3.25,4.69,3.36,1.73,4.73,4.5,4.55,8.16S489.43,94,493,95a4.4,4.4,0,0,1,3.22,2.91c2,6.93,7.44,11.23,12.12,16.08,1.6,1.66,2.77,3.42,2.61,5.69-.41,6,2.6,10.19,6.93,13.61,3.36,2.66,5.46,5.72,5.19,10.17a7.91,7.91,0,0,0,2.24,5.9,11.35,11.35,0,0,1,3.13,5c.72,3.34,2.73,5.08,5.94,6s4.5,3.16,4.58,6.36c.11,4-.07,8,.14,12a8.19,8.19,0,0,0,4.72,7.54c4.24,2.22,8,5.37,12.17,7.74,2.41,1.36,3.12,3.83,3.53,6.32,1,6.07,3.28,11.37,8,15.58,3.26,2.89,3.69,7,3.38,11.07-.4,5,.7,9.06,5,12.18a9.9,9.9,0,0,1,4,8.28,7.26,7.26,0,0,0,4,6.9c3.73,2.06,6,4.95,6.27,9.46.19,3.51,2.47,5.72,5.85,6.66,6.32,1.76,9.58,6.21,10.87,12.36a21.16,21.16,0,0,0,6.92,11.28c3.47,3.18,5.66,7,4.93,11.42-1.47,9,3.48,14.46,9.94,18.93,4.62,3.19,6.8,7.07,6.2,12.59a23.15,23.15,0,0,0,0,2.5c0,8.1,1,9.32,8.91,11.08,6,1.33,7.44,2.62,6.94,8.87-.54,6.77,1.77,11.93,6.52,16.38,1.5,1.39,3,3.13,1.16,5.09-1.59,1.65-3.69,1.1-5.55.08a28.54,28.54,0,0,1-2.68-2.23c-3.08-2.23-2.15.63-2.42,2-2.27,1.76-4.11.05-5.88-.92C630,373.28,618.1,366.67,606,360.43,604.62,359.7,602.29,359.46,602.75,356.87Z"/><path class="cls-4" d="M82.85,145.05c6.94-.66,6.94-.66,7.32,6.85.21,4,4.88,8.8,9.62,9.15,3.18.23,4.63,1.33,4.36,4.52-.35,4.27-.1,8.3,3.92,11.08,1.21.84,1,2.36,1.14,3.68s.51,2.92,2.46,1.72c4-2.42,4.09,1.46,4.19,3.09.66,10.59,6.86,18.16,13.44,25.5,1.91,2.13,3.25,4.13,2.82,7-.47,3.2,1.16,5.79,2.51,8.45,2.66,5.22,3.52,11.43,8.41,15.45a1.94,1.94,0,0,1,.78,1.23c-.08,9,7.57,10.13,13.26,13.48,4.19,2.47,5.62,7.11,6.94,11.52.37,1.23,0,2.82,1.14,3.68,3.41,2.46,3.06,6,2.9,9.49s.95,5.81,4.81,6.18c1.13.1,2.2.85,3.33,1,5.05.55,6.74,3.47,5.84,8.15-.86,4.51,1.73,8.35,2.26,12.59.24,1.93,1.92,3.1,4,3.07,3.22,0,3.78,1.9,3.77,4.58,0,4.14.38,8.25.7,12.37.33,4.33,1.77,6.83,5.66,8.26,1.65.61,3.16,1.48,1.6,3.61-.79,2.91-3.72,3.05-5.73,4.31-9.69,6.05-19.53,11.88-29.58,17.31-2,1.11-4.09,3.15-6.83,1.5.08-6.39-5.61-8.72-9.25-12.08-7.27-6.7-11.82-14.51-12.79-24.26-.34-3.35-1.73-5.34-4.89-5.94-5.35-1-7.51-4.15-7.24-9.52.18-3.63-.54-6.9-5.24-7.62-2.34-.36-2.92-2.79-3.73-4.87-1.85-4.73-2.89-9.93-7.17-13.4a4.71,4.71,0,0,1-1.62-4.05c.43-6.34-2.45-12-3.67-18a5.94,5.94,0,0,0-4.81-5.06c-4.85-1.18-7.52-4.55-8.73-9.27a21.23,21.23,0,0,0-6.82-11c-5.15-4.73-10.72-10.1-11.13-18.16-.07-1.31-.34-2.9-2-3s-2.09,1.4-2.5,2.66c-1.08,3.32-1.53,6.81-2.46,10.16-.42,1.52-.28,3.87-3,3.51q8.73-42.07,17.48-84.16A6.49,6.49,0,0,1,82.85,145.05Z"/><path class="cls-5" d="M582.66,680.32c-7.68,3.67-15,8.18-23,11.08-.62-.57-1.4-1.32-2.17-.8-4.69,3.13-6.31.2-8-3.6-1.51-3.35-3.24-6.54-3.23-10.35a4.61,4.61,0,0,0-1.13-3.25c-2.64-2.79-3-6.22-2.77-9.77s-1.23-5.38-4.9-6.19c-6.28-1.39-6.94-2.45-7-8.87-.05-3.07-.46-6-2.39-8.46a4.9,4.9,0,0,1-.93-1.76c-3.36-14-14.45-21.85-24.57-30.36-2.68-2.26-4.22-4.58-4.08-8,.12-3.07-.32-5.87-2.5-8.33-1.9-2.16-1.6-5-1.5-7.66.14-3.74-1.21-5.72-5.15-6.49-6.69-1.29-7.39-2.44-7.88-9.39a5.26,5.26,0,0,0-.18-2c-3.59-6.56-4.36-14-6.93-20.9-.46-1.24-1.56-2.38-1.45-3.67.6-7.29-4.56-9.51-9.94-11.58-1.64-2-.21-3.81.68-5.49,5.27-10,10.65-20,16-29.94,2.2-4.12,4.67-8.21,10.07-8.8,1.21,0,2.21-.66,3.31-1,4.36-1.27,8.32,1,7.9,5.4-.78,8.39,5.56,13.19,8.79,19.53,1,1.94,3.57,2.35,5.74,2.56,3.82.39,5.78,2.4,5.62,6.22-.19,4.22.61,7.84,4.39,10.46,1.79,1.24,1.54,3.56,1.73,5.53.38,4.06,1.87,7.38,5.86,9.16,3.18,1.41,4.14,4.15,4,7.37a7.3,7.3,0,0,0,3.68,7.05c3.94,2.54,5.46,7,7.53,11,.67,1.29.8,3.26,2.49,3.49,4.55.6,4.24,3.9,4.3,7.09a50.79,50.79,0,0,0,.23,7c.54,3.52,1.75,6.1,6,6.69,4.46.62,7.59,3.28,7.76,8.32a5.76,5.76,0,0,0,2.93,4.93,7.38,7.38,0,0,1,3.44,5.82c1,9.72,6.78,17.2,11.54,25.14,5.54,9.27,10.88,18.6,12.82,29.41.31,1.74,1.13,3.56-.14,5.29a40,40,0,0,0-9.52,4.46A57.21,57.21,0,0,0,582.66,680.32Z"/><path class="cls-1" d="M701.58,586.63c-2,12.71-5,25.22-7.7,37.78a4.66,4.66,0,0,1-3,3.58c-4.53,2-9,4.19-13.45,6.31-4.74-1.16-7.4-4.29-8.19-9A21.49,21.49,0,0,0,663.84,614c-4.42-5-6.18-12-11.13-16.8a.72.72,0,0,1-.2-.45c-.53-6.35-4.72-9.84-9.79-12.72-2.17-1.23-2.47-3.43-2.44-5.65.14-10.37-5.92-17.8-11.5-25.71-4.17-5.91-10.7-10.67-10.82-19a4.48,4.48,0,0,0-2.41-3.63c-3.51-2.07-5.24-5.39-6.78-9-1.84-4.26-3.59-8.62-7.49-11.58a3.25,3.25,0,0,1-1.16-1.6c-3.18-10.68-10.67-19.19-14.78-29.4a11.11,11.11,0,0,0-2.66-4.15c-5.87-5.49-9.93-12-10.32-20.23-.13-2.63-1.21-3.88-3.8-4.27s-4.12-2-3.82-4.87a4.93,4.93,0,0,1,2.71-3.36c11.91-6.46,23.64-13.27,35.6-19.64a10.77,10.77,0,0,1,3.78-1.14c6.78.05,7.88.82,9.86,7.34a17.83,17.83,0,0,0,2.56,5.92c4.79,6.14,5.59,13.32,5.66,20.72.06,6.49.06,6.6,6.31,7.73a6.69,6.69,0,0,1,5.91,6.45c.47,5.59,2.75,10.5,4.67,15.62,1.66,4.43,4.47,7.45,8.92,8.59,4,1,5.78,3.36,6.34,7.28.44,3.13.93,6.26,1.16,9.4.51,6.87,4.36,11.52,9.43,15.69,6.77,5.56,11,12.7,11.11,21.64.06,5,.31,8.75,6,11.49,4.79,2.29,7.06,8.45,11.13,12.39,2.64,2.56,4.22,5.71,7.23.71a.88.88,0,0,1,1.32,0,.81.81,0,0,1,0,.88l-2.2,10.92c-1.29,1.44-4.41-.24-4.89,2.68C698.83,587.81,700.28,585.8,701.58,586.63Z"/><path class="cls-5" d="M462.46,529.6c4.78-1.39,11.28,3.29,11.23,8.26,0,3.14.48,5.93,2.85,8.17.12.11.32.25.31.37-.77,7.84,5.33,13.84,5.81,21.27.45,7,.62,8.15,7.27,8.66,5.17.4,6,2.85,5.82,7-.14,3.58-.63,7.14,3.18,9.8,1.89,1.32.84,4.42.7,6.66-.22,3.62.91,6.1,4.39,7.44,2.68,1,4.33,3.42,6.44,5.13,5.69,4.62,8.3,12.07,14.94,15.66.54.29,1.23,1,1.21,1.5-.27,6.76,5.33,11.84,5.11,18.63-.21,6.45.68,7.71,7,8.18,4.17.31,4.95,2.34,5,5.75,0,4-1.1,8.41,3.45,11.15.54.32.66,1.9.47,2.8-1.12,5.5,3.27,9.18,4.58,13.89.7,2.52,2.56.73,3.84-.31,2.37-1.91,3.58-1.28,3.62,1.74q-12.69,8.42-25.38,16.81-12.21,8-24.48,15.95c-.89.57-1.7,1.7-3.07,1.23.07-3.59,3.45-4.1,5.52-5.74s2.59-2.7.32-4.61c-3.19-2.67-5.42-6.27-8.38-9.19-1.19-1.18-2.21-2.63-3.95-2.86-3.87-.52-5.3-3.06-5.65-6.52-.71-6.89-3.71-12.22-8.7-17.31-4.53-4.61-7.31-11-9.79-17.2-2.19-5.51-5-10.65-9.78-14.67-3.48-2.9-4.72-7.59-5.63-11.94-1-4.87-2.81-8.81-7.68-10.83a7.82,7.82,0,0,1-4.48-5.65c-2.06-7.69-5.65-14.4-11.9-19.61-2.66-2.22-2.42-5.4-1.14-8.3,1.41-3.19.45-5.07-2.7-6.11-.94-2.18.41-3.89,1.34-5.56,6-10.72,11.21-21.83,17.85-32.2,2.66-4.16,3.94-9.12,6.59-13.36C459.58,532.09,460.09,530,462.46,529.6Z"/><path class="cls-1" d="M565.57,444.62c-.18,3.33,1.62,4.46,4.67,4.17,2.65-.25,3.45,1,3.41,3.55-.13,9,4.67,15.29,10.61,21.74,4.39,4.74,6.38,11.74,9.19,17.86,1,2.16,1.64,4.35,4.1,5.28,1.92.73,2.06,2.31,2.07,4.08a11.2,11.2,0,0,0,4.66,9.39c4,3.09,4.3,8.49,7,12.42,3.72,5.43,9.89,9.47,9.44,17.18,5.21,3.51,7.75,9.47,11.3,14.18,5,6.64,10.78,14.18,9.52,23.83-.72,5.48,4.38,6.09,7.25,8.23,2.34,1.73,3.81,3.07,3.9,6.19a8.2,8.2,0,0,0,4,7c4.09,2.58,3.22,8.42,6.88,11.45.22.18.12.77.33.91,5.71,3.79,6,10.09,7.45,15.87.8,3.16,4.25,4,6.14,6.3Q662,642,646.54,649.57c-1.61.79-3.32,1.38-5,2,0-1.15,1.37-2.8-1.69-2.12-7,1.55-10.37-.42-13.39-6.94-1.28-2.74-2.51-5.53-2.65-8.53-.3-6.69-4-12.65-3.9-19.45,0-3.27-2.85-4.63-5.74-5.39-7.32-1.93-8.21-2.84-8.88-10.34-.24-2.69-.85-4.8-3.6-5.94-5.86-2.44-7.9-7.93-9.26-13.29-1.61-6.37-3.24-12.25-8.56-16.83-7.25-6.25-8.78-15.45-10.36-24.22-.9-5-2.42-8.36-7.65-9.6-4.15-1-5.86-4-5.59-8.24a13.5,13.5,0,0,0-2.2-8.54A12.79,12.79,0,0,1,556.3,506c-.49-5.61-2.15-7.55-7.53-9.09-1.27-.37-2.58-.61-3.89-.89-7.54-1.59-7.57-1.59-8.64-9-.24-1.71-.56-3.49-2.15-4.29-7.07-3.57-7.67-9.8-7.12-16.58.44-2.45,2.45-3.46,4.32-4.48,9.48-5.13,18.87-10.43,28.3-15.66C561.38,445,563.2,443.43,565.57,444.62Z"/><path class="cls-1" d="M319.92,12.36c.2,1.38-.59,3.67,1.43,3.71,7.43.14,8.08,6.7,11,11.11.9,1.38,1.25,3.31,2.44,4.28,3.15,2.58,3.43,5.86,3.11,9.43-.26,3,.35,5.07,3.76,5.89,3.22.78,5.58,2.75,5.76,6.51.3,6.51,6.82,10.68,6.86,17.06s3.52,8.4,8.72,9.88c5.74,1.62,5.79,7.09,6.79,11.66a25.36,25.36,0,0,1,.06,6.46c-.09,1.88-.1,4.23,1.11,5.22,4.33,3.57,4.58,8.29,5.11,13.27.39,3.69,2.55.57,3.94.35,1.25,1.67.38,3.15-.41,4.63-10.17,18.9-20.2,37.88-30.56,56.67-.67,1.22-1.11,2.93-3.13,2.63-.3-.56-.5-1.52-.92-1.63-7.52-1.9-10.9-7.24-12.07-14.39a5,5,0,0,0-2.84-3.84,8,8,0,0,1-3.95-4.92c-1.42-4.38-.88-9.6-5.66-12.54-.55-.35-.65-1.9-.5-2.82,1.41-8.58-3.84-12.44-10.76-14.64-2.74-.87-3.49-2.24-3.24-4.63.44-4.14-1.66-7.39-3-11.08-2.29-6.48-4.42-12.7-9.5-17.58a3.62,3.62,0,0,1-.5-2.85c1.08-5.75-2-8.16-7.05-9-3.62-.56-5.16-2.76-6.12-6.22-1.32-4.71-1.18-10.37-6.64-13.06-.43-.21-.76-.93-1.13-.93-5.24,0-8.68-3-11.71-6.79-.92-1.17-2-.65-3,.15a6.63,6.63,0,0,1-4.54,1.77c10.57-7,21.07-14.16,31.71-21.09C296.22,27.42,308.09,19.93,319.92,12.36Z"/><path class="cls-2" d="M60.83,234c3.18-4.11,2.59-9.35,4.07-14,.81-2.51,1.68-4.67,4.31-4.5s2.74,2.66,3.05,4.93c.64,4.73,2.84,8.33,6.12,12.25,4.55,5.44,11.94,9.39,12.12,18.25.08,3.73,3.48,6.55,7.48,6.94,3.51.34,4.85,2,5.41,5.22,1.12,6.46,4.61,12.44,3.82,19.31a3.36,3.36,0,0,0,.88,2.7c5.49,3.63,6.35,9.65,8.07,15.21.54,1.74,1.53,3.64,3.14,3.36,6.23-1.07,5.78,4,5.6,6.89-.36,6.08,1.49,9.41,7.74,10.13,3.36.39,4.32,2.68,4.57,6,.71,9.78,4.63,17.85,12.77,24,3.05,2.3,5.32,5.76,8.44,8.23,2.09,1.65.5,3.57-.2,5.34-.27,2.69-2.67,3.14-4.47,4.14-13.46,7.47-26.84,15.1-40.41,22.36-2.93,1.56-3.74,3.1-2,5.88l-.26.3c-1.59-.42-3.23-.75-4.77-1.31a3.18,3.18,0,0,1-1.93-3.21c0-1.3,1.1-1.44,2.13-1.54s2.53,0,2.38-1.75a2.2,2.2,0,0,0-2.11-1.83c-8.86-.78-8.9-8.22-10.49-14.19-1-3.61-.73-7.53-1.17-11.29a12.13,12.13,0,0,0-7.57-10.22c-4.1-1.88-6.62-4.87-6.38-9.69.15-3-1.4-4.32-4.3-5.07-8.14-2.11-8.85-2.86-8.57-11.26.19-5.79-4.06-7.5-7.84-9.44-1.79-.92-3-1.41-3.28-3.61-.62-5.33-4.52-9-7.27-13.18-1.19-1.8-2.58-1.28-2.66,1.05-.06,1.55-.54,2.59-2.32,2.46,5.47-15.81,8-32.31,11.33-48.63a10.82,10.82,0,0,1,1-2.2c1.59-2.8,1.09-6.05,1.94-9C59,239.87,60,237,60.83,234Z"/><path class="cls-4" d="M420.42,768.53c1.13-.36,4.32.59,1.31-2.29-4.07-3.88-5.49-9.58-9.32-13.79-1.46-1.6-.73-5.44-.55-8.23.33-5-1.51-8-6.6-8.74-4.43-.66-5.43-3.89-5.41-7.65,0-3.43-.25-6.45-3.37-8.85-2.53-2-1.89-5.27-1.57-8,.52-4.57-1.24-7.1-5.75-7.2s-5.22-2.17-5.47-6.25c-.65-11-5.64-19.89-13.95-27.38-3.25-2.93-6.13-3.94-10-3.66-1.8.13-2.73-.68-2.83-2.6-.28-5.28-1.48-10.67-.81-15.82,1-8-3.14-13.32-7.82-18.59a26.09,26.09,0,0,0-6.34-5.58,8.16,8.16,0,0,1-3.72-4.57c-1.9-6.48-5.12-10.69-12.74-8.84a1.47,1.47,0,0,1-1.8-1.29,3.53,3.53,0,0,1,1.29-2c4.92-4.75,4-10-1.71-14.17-8.39-6.14-12.06-14.94-12.29-25.22-.08-3.79.94-8.48-3.09-10.34s-5.43-5-6.37-8.28a7.28,7.28,0,0,0-5-5.37c-6.5-2.65-8.82-8.19-6-14.83,1-2.38,1.14-3.45-1.13-4.73-.91-.51-1.39-1.79-2.05-2.73-3.11-4.42-5.48-9.67-11.95-10.24-.73-.06-1.9-.71-2-1.27-1.53-7-8.31-11.06-9.86-18.05-.73-3.31-1.39-6.31,2.63-7.87,2.14-.83,1.27-2.31.9-3.71,3.51-.89,5.85,1.77,8.69,2.9,8.73,3.47,14.29,9.83,18.64,18.19,10,19.12,20.89,37.71,31.18,56.65.85,1.56,2.23,3,1.75,5-.35,1-1.67.4-2.13,1.3.89,0,1.39-.66,2.06-1,4.22,4.08,7.22,8.83,8.09,14.76-.18,1.25-3.14.31-2,2.45.92,1.79,2.53.91,3.93.66,3.54,2.31,4.72,6.28,6.61,9.68,13.62,24.5,27.31,49,40.86,73.49.39.71.74,1.5,1.87,1.7,4.87-4.73,5.49-12.4,11.07-16.73,1.69-.87,3.57-.85,4.35.88,1.59,3.55,4.86,4.9,7.83,6.58a11.49,11.49,0,0,1,6.24,9.56c.21,2.59.81,5.06,3.42,6.2,3.17,1.39,3.72,3.95,3.6,6.95a52.37,52.37,0,0,0,1.6,14.79c.89,3.58,2.68,6.05,6.47,6.61,5.52.82,8.83,4,10.55,9.22a15.2,15.2,0,0,0,4.33,6.61c1.38,1.25,2.61,2.82,2.65,4.66.17,8.15,6.36,12,11.66,16.33,2,1.64,4.15,2.93,3.89,5.84-.31,3.49,4.7,3.22,4.45,6.56-9.89,6.67-19.88,13.21-29.63,20.08-3.62,2.55-6.92,3.24-10.91,1.29C425.67,770.41,423,769.55,420.42,768.53Z"/><path class="cls-1" d="M527.62,465.57c2.41,3.07-.79,6.86,1.64,10.37,1.31,1.88,2.07,3.91,4.35,4.78,3.08,1.18,4.49,3.49,4,6.64-.71,4.67,1.5,6.65,5.81,7.19,2.29.29,4.55.8,6.82,1.27,3,.61,6.32,2.64,6.42,4.9.28,6.45,4.77,11.7,4.75,17.81,0,5.49,1.19,9.09,6.85,10,4.68.72,6,4,6.23,7.85.42,7.27,3.44,13.76,5.86,20.37a14.3,14.3,0,0,0,5.66,6.61c5.87,3.61,5.84,9.78,7.56,15.22s3,11.29,9.53,13.37c2.86.92,3.52,2.92,3.54,5.76,0,7.92.74,8.3,8.09,10.07,3.93,1,6.45,3.19,7,8.21,1.19,9.87,2.68,19.92,7.26,28.88,1.49,2.91,5,6,9.35,3.41a3.1,3.1,0,0,1,4.08.45c1.21,1.2-.94,1.83-.92,2.93-13.72,7.42-27.89,13.91-42,20.57l-2-9.69a14.61,14.61,0,0,0-.77-3.35q-8.24-16.75-18-32.69c-2.29-3.74-4.22-7.49-4.32-12a6.35,6.35,0,0,0-.79-2.86c-2.6-4.64-7.27-8.11-7.36-14.27,0-1.06-3.21-3.51-5.27-3.06-6.75,1.45-6.22-3.93-7.34-7.51-.57-1.82.12-4-.2-5.94-.45-2.68,2.44-7.68-4.22-6.54-.87.15-1.34-1.21-1.69-2.2-2.07-5.73-3.95-11.53-10.25-14.38-2.33-1-1.86-3.72-1.74-5.84.22-3.63-.41-6.22-4.53-7.67s-5.41-5.66-5.4-9.8c0-2.77-.62-4.82-3.13-6.15-3.51-1.88-3.06-5.25-2.91-8.36.19-3.77-.23-6.29-5.15-6.38-3.84-.06-7.42-1.77-8.09-6.61-.15-1.13-1.36-2.22-2.28-3.14a14.48,14.48,0,0,1-4.55-11.14c.17-7.21-1.83-8.37-8.33-5.28-.7.33-1.26,0-1.63-.69,0-2.5,2.16-3.19,3.8-4.07,9.76-5.22,19.42-10.61,29.06-16C524.08,465.69,525.67,464.5,527.62,465.57Z"/><path class="cls-4" d="M468.7,750.26c-.64-1.36-1.92-1.67-3.21-2.08-1.08-.34-2.73-.85-2.52-2.07,1.36-7.76-6.28-8.63-9.81-12.33-3-3.11-4.94-6.06-5.34-10.11-.26-2.61-.94-4.67-3.2-6.36-3.19-2.39-4.07-6.37-5.63-9.8-.88-2-1.71-3.45-3.92-4-3.31-.88-7.72-.72-9.54-3.4-2.75-4.05-3.35-9.28-3.71-14.26a43.93,43.93,0,0,1,0-6.49c.21-2.77-.31-4.78-3.43-5.6a4.73,4.73,0,0,1-3.47-5c.62-7.56-4.41-10.56-10.09-13-1.7-.73-2.88-1.38-3.06-3.37-.28-3.13-2.37-2.56-4.39-2-.34-4.67,2.76-8,4.7-11.74,8.2-15.71,16.9-31.16,25.23-46.8,1.44-2.7,2.3-6,5.63-7.22,3.36-1,6,.28,4.62,3.66-2.52,6-1.39,9.21,3.75,13.61a25.51,25.51,0,0,1,8.22,15.73c.43,3.49,2.27,5.34,5.29,6.49,4.64,1.76,6.21,5.73,6.84,10.11.29,2,1.51,3.79,1.71,5.57.79,6.75,7.47,9,10.32,14.46,3.56,6.78,6.14,14.08,10.29,20.67,2.23,3.53,5.92,5.09,7.86,8.64a30.12,30.12,0,0,1,3.87,12.1c.29,3.29,1,5.42,5.3,6.17s6.26,5.87,9.28,9c1,1,1.61,2.45,2.88,3.34,4.56,3.2,4.51,3.17-.2,6.47-2.14,1.5-4.74,2.41-6.27,4.73C494.31,734.09,482,743,468.7,750.26Z"/><path class="cls-1" d="M704.52,572.71c-2.8-.79-1.78,1.52-2,2.62-.73,3.23-2.88,3.12-4,.94-2.93-5.82-9.92-8.2-11.93-14.78-.56-1.82-2.65-2.69-4.84-3-3-.45-4.53-2.33-4.28-5.61.22-2.82,0-5.66.06-8.48.06-2.44-.35-4.78-2.39-6.25a5.9,5.9,0,0,1-2.32-4.23c-.39-3.2-2.26-5-4.78-6.51-7.65-4.68-11.4-11.56-11.55-20.54a67.7,67.7,0,0,0-1-8.35,4,4,0,0,0-3.5-3.69c-6.38-1-9.46-4.81-11.88-10.87a72.42,72.42,0,0,1-4.39-15.49c-.55-3.51-2.41-5-5.77-4.67-4.77.4-6.7-1.79-6.39-6.48.59-9-1-17.41-6.7-24.71a4.3,4.3,0,0,1-1.12-2.16c-.3-5.84-2.8-9.24-9.14-8.64-.28-2,1.4-2.5,2.59-3.18,12.21-7,24.59-13.65,36.88-20.49a2.64,2.64,0,0,1,2.81-.26,9,9,0,0,1,2.12,3.35c2.38,6.46,6.07,11.56,12.79,14.27,2.75,1.1,3.68,4.17,4.43,6.92a19.34,19.34,0,0,0,5.55,9.27c3.07,2.88,4.68,6.86,7.2,10,4.48,5.56,9.24,10.52,8.44,18.42-.13,1.29,1.58,2,2.83,2.53,3.61,1.46,5.6,4.06,5.53,8a6.18,6.18,0,0,0,3.14,5.79,9.82,9.82,0,0,1,4.5,5.8c1.51,6.87,4.9,12.93,7.51,19.33a13.27,13.27,0,0,1,.4,7.37c-.41,2.41-1,4.83-.46,7.16.9-3.87.9-8.31,5.47-10.4.05,0,.25.2.34.34a.77.77,0,0,1-.09.87q-5.2,25.23-10.43,50.47C707.06,562.51,706.4,567.76,704.52,572.71Z"/><path class="cls-1" d="M718.56,506.9c-3.1,1.87-3.77,5.06-4.35,8.23a16.73,16.73,0,0,0,.22,3c0,.79.11,1.84-.9,2-1.27.26-1.89-.81-1.91-1.77-.08-3-.52-6.12.23-8.92,1.5-5.6-.27-10.25-3.62-14.25-2.05-2.46-2-5.26-2.54-7.87-1.05-4.76-2.6-8.79-7.45-10.85-2.41-1-1.8-3.37-1.72-5.26.17-4-1.23-6.69-5.47-7.53-3.06-.6-3.74-2.93-3.55-5.68.34-5.14.49-10.17-6-11.91a1.12,1.12,0,0,1-.64-.72c-2-10.16-13.68-14.6-14.86-25.3a5.15,5.15,0,0,0-3.85-4.21c-8.88-2.64-10.8-10.61-13.63-17.87,2.65-4.06,8-4.37,11.26-8.11-2.73-2.36-6.16-3.58-9.07-5.58-1.28-.89-3.23-1.14-3.23-3.29-1.15-1.72-2.24-3.63-.12-5.2,2.59-1.93,2.76,1.17,3.9,2.23a22.05,22.05,0,0,0,2.16,2.06c1.47,1,3.43,1.43,4.54,0,1.25-1.59-.56-2.42-1.7-3.43-4.68-4.18-7.49-9-6.89-15.8.65-7.57.15-7.61-7.35-9.07-6.32-1.23-8.48-3.9-8.49-10.46,0-2.83-.13-5.67,0-8.49a5.92,5.92,0,0,0-3.44-5.67c-4.26-2.2-6.4-6.7-10.56-8.93-1.79-1-2.09-2.82-2-4.77.08-3.16.1-6.33,0-9.48-.1-2.88-.76-5.62-3.07-7.62-4.82-4.19-8.19-8.9-9.4-15.6a10.66,10.66,0,0,0-8.94-8.92c-4.2-.64-7.43-3.42-7.3-7.6.16-5-2.49-7.24-6.11-9.19-2.87-1.54-4.68-3.45-4.15-7.05.71-4.86-2.62-7.8-6-10.21a6.44,6.44,0,0,1-3-6.22,56,56,0,0,0-.11-9c-.27-2.25-.88-4.63-2.93-6.13-5.15-3.76-7.26-9.05-8.07-15.16-.44-3.32-1.46-6.36-5.3-7.57-4.72-1.5-7.64-6-12.52-7.59-2.7-.91-2.91-4.59-3-7.45-.09-3.83-.22-7.67,0-11.48s-1.42-5.57-4.93-6.12c-3.08-.49-5.41-1.68-5.2-5.39a2.76,2.76,0,0,0-.61-1.86c-3.94-4.11-6-8.74-5.61-14.65.14-2-2.41-3.44-4.12-4.74-4.84-3.69-8.3-8.05-7.57-14.63.24-2.11-.79-3.41-2.31-5-4.62-4.94-10.9-8.75-12.1-16.3-.26-1.66-1.7-2.12-3.31-2.48-3.71-.85-5.72-3.11-5.26-7.19.42-3.71,0-6.8-4.52-8.15a4.86,4.86,0,0,1-3.42-5.51c1.09-6.58-3.25-9.75-8-12.31-3.27-1.78-3.58-4.16-2.66-7,1.43-4.48,0-8.17-4.55-8.26-5.38-.1-5.45-2.2-3.82-6.05a196.62,196.62,0,0,1,20,7c.71,4,2.1,7.58,6.12,9.49.55.26,1.25,1,1.27,1.47.33,6.54,6.75,10.33,7.44,16.71.22,2,1.12,4.08,3.32,4.57,4.49,1,5,4.07,4.82,7.93s-.71,8,5.17,9c2.7.47,2.25,4.2,2.64,6.48.68,4,1.78,7.37,5.63,9.35,3,1.53,2.75,4.4,2.46,7-.49,4.36,1.28,7,5,9.3,4.55,2.8,7.39,7.37,6.9,12.85-.65,7.4,1.87,12,9.2,14.18,3.55,1.08,5.78,4.78,9.62,6,2,.62,1.58,3.32,1.19,4.95-1.61,6.55,3.09,11,5.59,15.92,2.05,4,4.26,8.23,9,11.13,3.18,2,3.76,8.1,8,10.62a1.51,1.51,0,0,1,.31,1.38c-2.67,7.45,4.14,11.68,6.39,17.35,1.27,3.19,3,6,2.77,9.54-.29,4,1,6.42,5.51,6.39,1.78,0,3.55.74,5.35,1,3.91.66,5.66,2.69,5.19,6.87-.51,4.42-.58,8.71,5.65,9.63,2.11.31,2.42,2.89,2.28,5-.32,4.74-.18,9,4.59,12.2,2.31,1.55,3.05,5.14,3.3,8.13.29,3.5,2.07,5.83,4.72,7.79,1,.78,2.81,1.69,2.84,2.58.25,7.15,5.39,12,9.22,16.72,3.44,4.25,5.72,10.13,11.46,12.45,2.85,1.15,3.92,3.53,3.78,6.4s.66,4.84,3.28,6.11c4,1.95,5.12,5.46,4.72,9.55-.46,4.66.54,8.27,5.77,9.38a2.84,2.84,0,0,1,2.25,2.92c.15,1.86,1.22,3.55,2.86,3.67,4.55.33,4,3.38,4.18,6.44.19,4.45.57,8.91,1.08,13.34.23,2,1.12,4.14,3.29,4.61,4.61,1,5,4.16,4.57,7.89-.49,4.7,1.16,7.32,6.36,7.12,1.74-.07,3.51.87,5.3,1.22,3.33.66,4.61,2.49,4.4,6-.26,4.35-1.25,9.3,5.49,10.22,1.66.23,1.35,2.41,1.44,3.9.13,2.47-.31,5,.43,7.43.66,2.18,1.42,4,4.06,4.4,3.61.53,4.88,2.72,4.54,6.33-.45,4.59-.69,9.17,5.8,10,1.39.18,1.75,2.11,2.24,3.6,2.26,6.84,2.17,14.65,8.05,20C723,484.14,721.51,495.7,718.56,506.9Z"/><path class="cls-3" d="M1019.78,818.24c-1.06,8.35,0,16.84-1.61,25.15-1.13,3.9-.45,7.85-.41,11.78a5.55,5.55,0,0,1-2.67,3c-.33-6-2.58-11.66-3-17.78-.66-9-1-18.34-5.38-26.7-.31-.59-.23.15-.17-.44.74-8.45-4.12-15.48-6-23.25-2.37-9.67-3.2-19.92-8.58-28.73a2.76,2.76,0,0,1-.06-2.4c1.39-2.55,3.93-3.71,6.28-5,1.65-.93,3.13-1.76,2.4-4-.12-.59.12-1.5-.27-1.73-.84-.5-1,1-1.77,1-9.41-3.88-18.91-7.58-26.42-14.85a3.92,3.92,0,0,1-.1-2.93c4.66-10.08,2.82-19.58-2.5-28.8a8.24,8.24,0,0,1-1.36-4.23c.23-6.71-1.93-13.1-2.61-19.7-.79-7.52-4.06-14.66-6.2-22-.37-1.27-1.28-2.46-1.21-3.78.47-9-3.41-16.85-6.14-25a40.75,40.75,0,0,1-2.09-16.69c.77-8.68-3.05-16.16-5.68-24-.47-1.41-2.39-2.78,0-4.17,12.28,8.25,25.75,14.53,37.89,23,3.08,4.15,3,8.38,2.77,13.65-.42,9.63,1.44,19.45,3,29.11a6.94,6.94,0,0,0,.64,2.4c5.95,10.11,6.45,21.4,7.26,32.66a23.93,23.93,0,0,0,4.15,12.58c2.47,3.49,3.44,7.91,3.61,12.29.29,7.18,1.67,14.2,2.86,21.25.25,1.48.37,3.16,1.62,4.09,5.24,3.94,5.14,9.47,4.26,15s-.55,10.57,3.46,14.91a4.93,4.93,0,0,1,.94,4.7,19.05,19.05,0,0,0,2.5,15.29c1.11,1.71,1.23,3.74,2,5.56,0,5.38.4,10.79-.92,16.1C1019,809.68,1019.77,814,1019.78,818.24Z"/><path class="cls-6" d="M944.18,582.91c1.84,5.23,3.52,10.52,5.6,15.65a14.59,14.59,0,0,1,1.4,7.22c-1.38,12.41,2.31,23.8,6.91,35a11,11,0,0,1,1,4.31c-.25,10.17,4.33,19.11,7.11,28.5.28,1,1,1.94.85,2.81-1.12,7.07,2.9,13.57,2.19,20.62a7.31,7.31,0,0,0,2.07,6c3.38,3.18,3.75,7.2,3.82,11.39a31.07,31.07,0,0,0,.71,5.89c.7,3.44.92,7.11-2,9.81-1.6,1.49-.78,3-.79,4.57-1.53.9-2.91.17-4.19-.53-10-5.45-20.19-10.48-30-16.31-1.52-.9-3.3-1.71-3.3-4A77.68,77.68,0,0,0,933,687.47c-2.47-8.56-6.84-16.65-6.24-26a9.42,9.42,0,0,0-1.44-5.23c-.49-.86-1.33-1.72-1.34-2.64-.12-7.83-3.94-14.8-5.11-22.37-.17-1.14.29-2.66-.41-3.41-6-6.47-3.07-15.26-6-22.58-1.77-4.49-.4-9.55-1.06-14.34-.93-6.71-3.44-13.23-2.48-20.17.26-1.89-1-3-2.36-4.09a18.94,18.94,0,0,1-5.18-6c-.55-1-1.95-2.87,1-3.07,9.17,5.46,18.36,10.88,27.5,16.38C934.68,576.91,939.41,579.94,944.18,582.91Z"/><path class="cls-7" d="M902.37,557.63c-.31,4.28,2.79,6.4,5.71,8.32,2.06,1.34,3.08,2.23,2.36,5-1.63,6.35,1.57,12.37,2.13,18.61.25,2.78.64,5.57.65,8.38,0,3.48.07,6.83,1.56,10.21,1.14,2.57,2,5.51.68,8.66-1,2.29.18,4.73,2,6.32a8.26,8.26,0,0,1,2.81,7.55c-.36,3.61.15,7,3.09,9.56.36.32.85.87.78,1.23-1.32,7.18,3.57,13.25,3.83,19.85.39,9.72,3.91,18.25,7.21,27a11.49,11.49,0,0,1,1.06,4.8,46.79,46.79,0,0,0,1.72,15.72c.74,2.58-.94,4-1.83,5.91-5.32,0-9.81-2.18-12.36-6.73q-18.11-32.28-36-64.69c-1.92-3.48-4-6.89-5.94-10.33-7.72-4.32-8.79-11.22-9.15-19.44-.58-13-2.48-26.08-9.11-37.82a4,4,0,0,1-.81-1.8,80.52,80.52,0,0,0-1.58-14.36c5.95-5,12.87-8.57,19.14-13.09,1.9-1.37,3.39-.56,4.95.41Q893.83,552.24,902.37,557.63Z"/><path class="cls-8" d="M801.25,905.29q-22.65-20.94-45.31-41.86a5.34,5.34,0,0,1-1.63-3.93q-3.39-44.21-6.95-88.4c-1.52-18.65-3.38-37.26-4.88-55.91-1.19-14.82-2-29.67-3.08-44.5-.62-8.73-1.4-17.46-2-26.2-.11-1.59-1.08-3.89,2-4.11.84.11,2.06.39,2.09,1.09.22,4.94,4.47,8.67,4.23,13.59-.36,7.41,1.23,14.55,2.39,21.75.54,3.32.91,6.57-.18,9.85a5,5,0,0,0,.25,3.88c3.75,7.43,3.7,15.68,5.33,23.58,1.67,8.1,2,16.79,7,24a11.8,11.8,0,0,1,2.11,5,8.6,8.6,0,0,0,4.3,6.37c0,3.7,1.66,6,5.3,7.05a5,5,0,0,1,3.42,3.29c.17,3.51-2.12,6.37-2,10.07.14,7.13,1,13.7,5,19.89,2.77,4.2,3.16,9.55,3,14.47-.17,6.27,1.7,11.77,4.32,17.17a35.66,35.66,0,0,1,3.88,16.33,7.8,7.8,0,0,0,.26,3.46c5.25,10.86,3.78,23.08,7,34.34a9.7,9.7,0,0,1,.58,3.43c-.51,5.6,1.44,10.38,4.53,14.9a14.43,14.43,0,0,1,2.45,6C805,902.55,804.6,904.88,801.25,905.29Z"/><path class="cls-9" d="M875.22,974.32c-14.08-12.23-27.37-25.32-41-38.1,2.87-5.12.53-10-.74-14.93a41,41,0,0,1-1.61-11.8,18.49,18.49,0,0,0-1.27-8.33c-4.88-10.63-6-22-6.82-33.39a8,8,0,0,0-1.62-4.13c-.57-.81-1.44-1.62-1.48-2.56-.33-6.51-3.71-12.5-4.24-18.62-.65-7.51-2.63-14.73-4.33-21.78-1.82-7.51-2.5-15.35-5.3-22.64a13.8,13.8,0,0,1-.33-9.81c1.5-3.92,1.19-7-1.85-9.91a2.69,2.69,0,0,1-.77-2.29c1.13-2,2.67-.81,3.82-.25,9.32,4.55,18.29,9.75,27.34,14.8a3.31,3.31,0,0,1,1.72,2.31c0,1.82-.23,3.76,1.55,5,3.07,2.11,3.47,5,2.76,8.37-.65,3.08.43,5.71,1.61,8.58A110.52,110.52,0,0,1,849.5,840c1.53,9.58,1.5,19.89,5.32,28.62,3.91,8.92,6.31,17.65,6.46,27.17a42.28,42.28,0,0,0,4.41,17.73c3.14,6.55,3.23,13.48,3,20.48a17.34,17.34,0,0,0,2.63,10.36c2.84,4.57,4.21,9.74,2.61,15.27-1,3.49-1.13,6.77,1.69,9.73C877,970.85,877.78,972.86,875.22,974.32Z"/><path class="cls-8" d="M804.36,775.46c0,1.41,1.31,1.79,2,2.65,2.21,2.71,5.25,5.29,1.66,9.2a4.71,4.71,0,0,0-.63,3.33,145,145,0,0,0,4.94,24.51c.83,2.86,2.24,5.53,2,8.64-.19,2.69,0,5.25,1.9,7.5,1.23,1.45,1.17,3.41,1.09,5.26-.21,4.51-.31,9,3.17,12.6,1.4,1.45.82,3.5.8,5.29-.05,3.51-.32,7,3,9.49a2.79,2.79,0,0,1,.92,2.2c-1,7.08,2.24,13.7,2.11,20.68-.07,3.45,1.38,6.48,3,9.38a22.46,22.46,0,0,1,2.88,11.44c-.16,7.45,1.56,14.43,4,21.34,1.14,3.25-.61,5.38-2.93,7.25l-33-30.93c3.34-2.39,3-5.55,1-8.23-6.9-9-5.92-19.85-7.93-30-1.09-5.54-.31-11.89-2.32-16.5-5.14-11.79-2.61-25.74-11-36.38-1.09-1.39-.59-3.23-.56-4.87.17-9.06-1.08-17.73-6.65-25.29a8.85,8.85,0,0,1-1.38-5.7c.16-6.36-.88-12.83,2-18.9,1.09-1,2.16-.43,3.18.1,7.89,4,15.65,8.33,23.42,12.58C802.42,772.83,803.93,773.66,804.36,775.46Z"/><path class="cls-9" d="M875.22,974.32c.73-1.38,1.39-2.91-.29-4-4.89-3-3.49-7.48-2.32-11.48,1.79-6.1-.51-11-3.84-15.6a7.59,7.59,0,0,1-1.45-5.58c1.19-11.21-1.76-21.49-5.94-31.8-2.25-5.55-2.46-12-2-18.07.46-5.37-1.39-9.89-4-14-3.52-5.5-4.06-11.42-4-17.55a23.62,23.62,0,0,0-1.87-8.67c-1.29-3.35-2.93-6.69-1.37-10.49a3.56,3.56,0,0,0-.06-2.9c-4.39-6.35-2.4-15-8-21.07-1.87-2-.9-5.36-.15-8.14.7-2.58.77-4.66-2.57-5.9s-2.84-4-1-6.48c4.11-1,6.22,1.79,7.69,4.62,7.11,13.65,15.06,26.84,22.32,40.42,5.22,9.77,10.89,19.32,16.19,29.06a13.19,13.19,0,0,1,2,5,15.57,15.57,0,0,0,3.75,10.06,18.05,18.05,0,0,1,4.25,12c-.2,7.42.48,14.53,4.12,21.2,4.51,8.27,2.64,17.58,3.87,26.38a49.51,49.51,0,0,0,2.67,10.33c2,5.52,5.88,11.5,1.21,17.68-5,5.1-10,10.14-14.94,15.34-1.44,1.53-2.31,1.19-3.57-.07C882.38,981.22,878.79,977.79,875.22,974.32Z"/><path class="cls-2" d="M1021.1,789.36c-5-6.43-8.58-13.24-5.56-21.67.68-1.91-.41-2.81-1.47-3.82-3.91-3.7-4.23-8.25-3.57-13.24.76-5.76,2.79-11.84-4.15-15.87-2.49-1.45-1.5-5-1.89-7.43-1-6.5-2.15-13-2.52-19.63-.25-4.39-1.25-9-4.59-12.67s-2.69-8.68-3.18-13.22c-1.07-9.89-.57-20.12-6.66-28.88a9.33,9.33,0,0,1-1.23-3.76c-1.66-10.38-1.7-21-3.87-31.29-.07-.32-.2-.85-.06-1,4.51-3.34,1.77-5.69-.94-8.27-.73-.69.22-1.86.66-2.74,4.67,3.92,10.24,6.53,15.46,9.42,10,5.53,19.47,12,29.46,17.48,2,1.1,2.87,2.44,2.7,5.16-1.38,21.68-2.47,43.38-3.61,65.08q-1.66,31.82-3.28,63.64a7.65,7.65,0,0,1-.57,1.86c-1.25,3.89-.55,7.84-.38,11.77C1022,783.36,1022.19,786.42,1021.1,789.36Z"/><path class="cls-7" d="M861.19,559.58c3.12,3.74,3.24,7.77,2.4,12.52-.61,3.5,3.45,6,4.48,9.65,3.14,11.13,6.31,22.21,6.17,33.88-.08,6.44.31,12.37,7.55,15.08.64.24,1,1.29,1.44,2-1.8,7-6.16,12.84-9.43,19.16-6,11.67-12.53,23.1-18.69,34.7-1,1.8-1.36,4.32-4.25,4.24-4.55-3-2.73-7.79-2.84-11.77-.08-2.93-.32-5.33-2-7.85-4.37-6.58-4.26-14.51-6-21.88-.38-1.59-.19-3.35-.95-4.85C833.82,634,833,622.84,833,611.5c0-6.36-3.49-11.64-5.36-17.36a23.77,23.77,0,0,1-1.26-11.5C837.73,574.58,849.31,566.86,861.19,559.58Z"/><path class="cls-7" d="M953.21,920.22a294.25,294.25,0,0,1-23.11,22.94c-1.41,0-1.74-1.06-1.57-2,1.43-7.87-1.51-15.13-3.59-22.35-1.25-4.38-1.27-8.8-2.31-13.15-2.75-11.6-6.48-23-8.12-34.83a15.8,15.8,0,0,0-2.73-6.37c-4.86-7.42-6.91-15.24-4.21-24,.84-2.73-2.2-2.39-3.19-3.68-1.2-1.91,0-3.53.8-5.06,5.38-10.19,11.1-20.19,16.36-30.45.94-1.82,1.89-3.93,4.4-4.31,6.74,1.58,9.28,5.58,10,12.71.77,7.29,2.68,14.72,3.45,22,1.48,13.82,10.47,25.66,9.49,39.91-.1,1.46.66,2.9,1.15,4.32,4,11.52,5.09,23.53,6,35.57A11.51,11.51,0,0,1,953.21,920.22Z"/><path class="cls-7" d="M953.21,920.22c2.22-8.61.35-17-.44-25.61-.85-9.28-5.4-17.55-5.54-26.77-.1-7.45-2.75-14.12-5.63-20.82-3.34-7.77-3.89-16.28-5.09-24.48-.87-5.92-3.27-11.7-2.53-17.93a4.12,4.12,0,0,0-3.47-4.31c-2-.42-3.53-1.77-5.13-2.94-1-2.27.58-3.43,2.13-4.36,7.93-4.73,16.09-9.07,24.15-13.59a4.68,4.68,0,0,1,4.27-.48c3.53,2.65,3.67,6.5,3.64,10.37,0,4-.19,8,2.79,11.31.43.48.22-.19.23.42.06,8.28,4.31,15.48,5.92,23.34,2,9.74,1.39,20,4.66,29.39,3.17,9.07,6.29,18,8.08,27.47.82,4.37,2,7.87-1.83,11.14-1.15,1-1.42,2.61-2.24,3.86C969.48,904.52,961.58,912.6,953.21,920.22Z"/><path class="cls-2" d="M760.21,204.18c-21.47-17.88-33-41.12-36.7-68.48-2.81-20.95.58-41,9.12-60.28A91.67,91.67,0,0,1,745,55.14c2.1-.93,3-4.83,6-3.13,2.52,1.41,1.69,4.43,1.78,6.86a13.73,13.73,0,0,1-.87,5.38c-1.1,2.83-.59,5.49.48,8.22a41.7,41.7,0,0,1,2.11,10.11c.94,7.32-2.43,13.57-3.8,20.28a88.5,88.5,0,0,0,0,37.75c.5,2.21,0,4.69,1.9,6.48a120.46,120.46,0,0,0,10.78,22.06c.94,2.59,1.21,5.38,3,7.74,1.57,2.09,1,4.47-.49,6.44-2.16,2.8-2.19,5.72-1,8.88a20.12,20.12,0,0,1,.72,9.31C765.18,205,763.43,206.18,760.21,204.18Z"/><path class="cls-9" d="M826.37,582.64c.21.25.61.49.62.74.3,8,3.39,15.18,6.76,22.26a7.18,7.18,0,0,1,.54,3.38c-.53,8.32.93,16.46,2.1,24.62a13,13,0,0,0,1.43,4.72c4,6.76,4,14.48,5.54,21.83.44,2.09.67,4.5,1.87,6.11,4.77,6.42,4.6,13.65,4.11,21-.11,1.65,1.34,2.17,2,3.25-1.76,8.65-5.78,16.2-12.57,21.74-3.69,3-7.75,6.28-13.08,6.42-2.87-1.52-2.55-3.74-.95-5.82,2.53-3.27,2.24-6.41.14-9.66a2.2,2.2,0,0,1-.46-.88c-.65-7.74-4.83-14.61-5.47-22.34a20.35,20.35,0,0,0-1.66-7.24,22.74,22.74,0,0,1-2.76-10c.14-11.67-5.61-22.13-6.74-33.45-1-10.4-4.72-20.28-5.42-30.69Q814,590,826.37,582.64Z"/><path class="cls-8" d="M762.25,625.14l16.07-10.59c3.11-1.38,4.26.42,4.81,3,2.85,13.54,6.37,27,6.84,40.92.14,4,3.18,6.85,4.65,10.35a26.53,26.53,0,0,1,2.2,10.09c.17,9,.73,17.93,5.24,26.06a5.8,5.8,0,0,1,.68,1.86q1.8,11,4.34,21.86c-5.55,5.89-13,8.79-19.85,12.73-1.36.79-2.8,2-4.57.8-7.29-6.26-9.71-14.17-8.78-23.63.57-5.88,1-12-3.71-17a4.58,4.58,0,0,1-.92-2.81c-1-12.7-5-24.65-8.54-36.75-2.16-7.3-2-15.11-3.53-22.62a7.83,7.83,0,0,1,1.59-6.14A23.08,23.08,0,0,0,762.25,625.14Z"/><path class="cls-7" d="M904.41,836.32c5.92.84,5.28.68,3.7,6.79a20.76,20.76,0,0,0,1.47,14.79c3.14,5.82,6,11.33,7.13,18.21.87,5.21.91,11.31,3.11,15.57,2.62,5.08,3.62,10.15,4.31,15.31,1.31,9.77,4.63,19.06,6.35,28.73.48,2.74-2.68,4.91-.38,7.44-7.84,9.48-17,17.66-25.7,26.29-.3-.9-1.06-1.73-.19-2.75,1.84-2.14,2.5-4.21-.13-6.37-1.11-.91-.79-2.44-.84-3.76,0-1.16.33-2.76-.28-3.39-6.52-6.7-3.66-15.35-4.39-23A51.74,51.74,0,0,0,893,910.48c-1.7-3.23-1.92-6.61-1.77-10.11.3-7.23-.22-14.11-5.72-19.81-2.35-2.44-2.67-6-2.24-9.4,5.68-7.37,8.71-16.25,13.69-24,.89-1.38,1.45-3,2.69-4.12,1.82-1.52,4.35-2.52,4.08-5.58A1.56,1.56,0,0,1,904.41,836.32Z"/><path class="cls-9" d="M806.35,729.23c-4.48-9.57-3.26-20.6-8.33-30.24-3-5.65-3-12.82-2.56-19.43.38-6-2.12-10.79-5.08-15.53-1-1.57-2-3.06-2-5-.08-4.77-1.31-9.56-1.51-14.09-.34-8-2.59-15.21-4.73-22.61a7,7,0,0,1-.32-3.84c.67-2.76-.83-4-3.51-4,7.23-4.85,14-10.42,22-14.15a10,10,0,0,0,2.07-1.8c2,3.31,2.57,7,3.14,10.77,1,6.42,3.18,12.56,3.55,19.19a39.06,39.06,0,0,0,3.47,14.87c3.77,7.62,1.57,16,4.08,23.49,2,6,4.47,11.75,3.85,18.24,6.48,5.14,1.73,14.17,7,20,2.08,2.28,1.46,5.67-1.25,8-2,1.73-2.62,3.46.16,5.06-.72,2.84-3.41,3.62-5.5,4.57C816,725,812.15,729.29,806.35,729.23Z"/><path class="cls-6" d="M977.18,896.23c-.2-2.42,0-5.08,2.14-6.28,3.12-1.78,2.54-3.56,1.23-6.05a18,18,0,0,1-1.82-5.62c-.94-6.4-1.87-12.45-5.1-18.58-3.64-6.93-3.67-15.47-4.8-23.45-1-7.21-.05-15.32-5.43-21.61-1.35-1.58-1.26-3.7-1.23-5.71.06-3.78.24-7.3-3-10.5-2.41-2.37-.86-6.36-.9-9.61,0-3.6-.43-6.92-3.22-9.52a1.82,1.82,0,0,1,.76-1.73,142.37,142.37,0,0,1,18.62-10.48,3.31,3.31,0,0,1,2.44-.08c.3.16.72.31.8.58,2.62,8.64,8.5,16.11,8.88,25.57.3,7.66,1.27,15.14,5.43,22,3.71,6.08,3.17,13.29,3.24,19.92A33.17,33.17,0,0,0,1001,853.6c3.7,5.57,1.85,10.85-.24,16a49.74,49.74,0,0,1-3.65,6.47C990.7,883,984.21,889.9,977.18,896.23Z"/><path class="cls-10" d="M998.18,341.87c14.52,12.36,22.51,28.49,25.59,46.9,4.24,25.24-2.33,47.93-18.51,67.71-4.07,5-8.35,9.9-14.15,13.09a2.25,2.25,0,0,1,.17-2.79c4.71-6,4.11-13,2.76-19.51a56.08,56.08,0,0,1-1-19.31c.86-6-.63-11.54-.77-17.29.25-2.93,2.59-3.92,4.74-5.12a47,47,0,0,0,6.5-4.08c-1.58-1.89-3.9-2.34-5.76-3.47s-4-1.76-4-4.45c-1-8.86-2.21-17.72-1.76-26.66.34-6.71-.86-13.57,1.86-20.08C994.75,344.63,995.53,342.46,998.18,341.87Z"/><path class="cls-2" d="M790.09,176.25c-13.68-9.09-21.84-22.18-25.24-37.83-6.1-28.13,2-52,23.47-71.33a7.49,7.49,0,0,1,1.26-.75c4.73-1.31,5.8-.74,6.06,3.77.23,4.12-.15,8.3,2.9,11.75a3.38,3.38,0,0,1,.29,3.8c-1.57,2.85-.86,5.72-.44,8.61-4.85,7.39-8.4,15.25-9.06,24.23a45.19,45.19,0,0,0,8.17,29.44,7,7,0,0,0,2.29,3.72,4.49,4.49,0,0,1,.9,5.47c-2.38,4.82-3,10.06-4,15.23C795.79,176.74,794.72,177.28,790.09,176.25Z"/><path class="cls-11" d="M926.17,63.38c10.29,12.26,16.92,26.3,21.34,41.64a117.89,117.89,0,0,1,1.73,58.45c-4.74,21.92-15.22,40.82-30.44,57.18a20.87,20.87,0,0,1-2.69,2.11c-4.27-2.23-8.34-9.78-7.67-14.12.55-3.53,3.29-2.88,5.57-2.77.77-2.17-1.18-4.11.13-6,9.07-13.22,16.41-27.19,19.3-43.2,5-27.5,1.39-53.42-13.94-77.25a19.06,19.06,0,0,1-1.07-2.23C918.39,70.63,921.62,64.87,926.17,63.38Z"/><path class="cls-8" d="M762.25,625.14c1.75,2.72.93,5.11-1.13,7.16a9,9,0,0,0-2.58,8.71c2.34,10.74,3.71,21.64,6.92,32.28,2.38,7.91,5.77,15.94,5,24.65-.11,1.22.28,3,1.12,3.69,4.8,3.89,3.75,9.18,3.79,14.23,0,3.17.13,6.33,0,9.49-.23,4.56.66,8.43,4.63,11.39a9.72,9.72,0,0,1,3.39,5.37c-4.24,4.65-9.19,8-15.66,8.46-4.11-.33-6.34-2.41-6.35-6.68,0-1-.13-2.27-.74-2.8-7.15-6.26-3.73-16.48-8.9-23.53-1.27-1.75-.09-4.53,0-6.68a37.41,37.41,0,0,0-2.84-14.9c-2-5.11-1.61-9.55-1.77-14.6-.3-9.32-2.73-18.48-3.11-28-.16-4.16-3-8.71-4.65-13Z"/><path class="cls-11" d="M902.25,79.25c14.82,18,20.81,38.68,19.42,61.85a89.23,89.23,0,0,1-19.2,50.74c-1.21,1.56-2.64,2.94-4,4.41-3-.21-2.6-2.63-2.65-4.4-.38-12.84-1.08-25.68.54-38.52.59-4.69,1.08-9.54-.88-14.15,0-3,0-6,0-9.06,1.42-3.81.5-7.54-.63-11.17a17.32,17.32,0,0,1-.87-7.83,66.69,66.69,0,0,0,0-20.82,34.11,34.11,0,0,1-.19-6.47c.1-2.45-.27-5.24,2.3-6.71S900.27,78.31,902.25,79.25Z"/><path class="cls-6" d="M997.13,876.11a8.08,8.08,0,0,1,2.29-6.76c3.07-3.22,2.78-11,.56-14.81-3.17-5.44-6.13-10.71-6.11-17.71,0-9.09-.19-18.4-5.91-26.68-2.82-4.1-2.39-9.85-2.74-14.93-.38-5.68-.85-11.23-4.51-15.94-2.7-3.49-1.75-8.33-4.37-11.85-.06-.15-.22-.4-.18-.44,4.89-4.37,10.11-8.11,16.91-8.83-.19.63-.7,1.71-.52,1.84,6,4.31,3.59,11.68,6.29,17.23,3.63,7.47,2,16.62,7.25,23.74,1.15,1.56,1.18,3.74,1,5.77-.2,3.34-.16,6.51,2.62,9.15,1.77,1.69,1.29,4.31,1.4,6.63.17,3.32-.4,6.44,2.21,9.73,1.64,2.06.66,6.52.21,9.82-.25,1.9-.56,3.72.47,5.23,2.38,3.49,2.15,7.08,1,10.82A247.82,247.82,0,0,1,997.13,876.11Z"/><path class="cls-8" d="M873.54,451.78c-12.9-16.93-17.66-36.2-15.72-57.12,1.42-15.4,6.53-29.56,16.25-41.84,2.86-1.56,4.38.09,5.45,2.41a13.67,13.67,0,0,1,.8,8.8c-1.92,8.78-1.18,17.48.89,26.08,1.13,4.68-1.52,7.13-4.58,9.58a19.64,19.64,0,0,1-3.91,2.84c3,.88,5.88,2.06,7.51,5.11a16.35,16.35,0,0,1,.13,9.25c-1.3,5.21-.58,10.55,0,15.74a60.76,60.76,0,0,1-1.06,17.21C878.48,454.24,877.33,454.52,873.54,451.78Z"/><path class="cls-12" d="M854.3,92.33c15.49,6.13,24.22,18.13,26.65,34,3.16,20.6-3.5,38-20.67,50.64-3-2.09-2.68-5.38-2.29-8.19,1.31-9.42-.24-18.48-2.53-27.52a30.46,30.46,0,0,0-2.1-18c.17-5.4-.6-10.8.42-16.21a18.6,18.6,0,0,0-.74-8.8C852.39,96,852.26,93.92,854.3,92.33Z"/><path class="cls-13" d="M935.21,485.77a64.26,64.26,0,0,1-32.09-8.92,27.41,27.41,0,0,1-1.34-9.81q0-14.94,0-29.9c0-3,0-5.95-1.27-8.79s.22-5.45,1.68-7.89c1.21-1.48,2.68-1,4.06-.42,5.54,2.42,10.38,5.31,13.27,11.25,5.09,10.42,11.24,20.3,16.7,30.54.78,1.45,1.81,2.8,1.83,4.55a16.23,16.23,0,0,0-1.09,10.4C937.59,479.55,935.19,482.61,935.21,485.77Z"/><path class="cls-11" d="M993.11,409.62c2.14,7.15,2,14.4,1,21.69s1.59,14.35,2.09,21.56c.24,3.45-1,6.67-.46,10.25.41,2.57-4.39,3.25-4.65,6.45a60.6,60.6,0,0,1-22.92,12c3.47-6.09,1.86-12.13.28-18.38-1.5-6-.46-12.2-.32-18.3.08-3.79.07-7.59.27-11.4.17-3.11-.45-6.32-3.3-8.45-.48-1.75.89-2.4,2-3,7.37-3.78,14.42-8.15,21.78-11.95C990.2,409.46,991.58,408.7,993.11,409.62Z"/><path class="cls-11" d="M998.18,341.87c-3.74,5.24-4.64,10.78-4.56,17.41.1,8.57-.26,17.16.46,25.75a23.89,23.89,0,0,0,1.36,6.22c.61,1.7.19,2.5-1.51,2.76-1.32.86-2.58.29-3.73-.31-7.68-4.08-15.29-8.3-23.1-12.15a5.91,5.91,0,0,1-3.14-3c.15-2.31,3.11-.86,3.6-2.72.06-.42.14-.83.22-1.24.43-7.49,1-15.14-.2-22.38-.61-3.71,0-7.63-1.41-11.21-.6-1.57.2-2.92.57-4.34,1.17-4.52,2.36-9-2.12-12.62a1.75,1.75,0,0,1-.41-1.85C977.15,326,988.75,332,998.18,341.87Z"/><path class="cls-13" d="M897,331.79A70.27,70.27,0,0,1,930.22,320c4.9,4.06,5.71,7.11,2.75,12.2-1.1,1.88-1.79,4-.77,5.54,2,3.13.94,5.94.11,8.92a207.89,207.89,0,0,1-16,30.33,16,16,0,0,1-12.84,7.4c-2.8-2.3-4-4.75-2.62-8.67s.92-8.21.91-12.36.07-8.32,0-12.47c-.13-5.67,1.32-11.71-3.83-16.26C897.24,334,897.19,332.77,897,331.79Z"/><path class="cls-8" d="M903.23,420c-3.25,4.38-.08,8.75,0,13.13.14,11.91.22,23.83-.08,35.74-.07,2.66,2.26,5.34,0,8-12.25-5.54-21.86-14.19-29.58-25.07,3.33,2.06,4.1.26,4.76-2.76,1.66-7.67,1.17-15.46.24-23-.81-6.54,2.51-12.63.72-19,1.33-1,2.6-.28,3.7.33,5.8,3.22,11.67,6.3,17.57,9.32C901.85,417.38,903.11,418.28,903.23,420Z"/><path class="cls-2" d="M829.53,116.58c-5.47,5.15-6.79,10-4,14.31,1.45,2.26,2.79,3.1,4.75.4,1.85-2.54,4-4.87,6.44-7.81a12.11,12.11,0,0,0,3.67,5.9c3.38,3.13,2.24,9.73-1.8,13.87-7.3,7.46-21.17,6.24-28.93-2.54-12.67-14.35-6.86-38.4,11.51-47.48,1.9-.93,3.77-2.16,6.06-2,2.45-.93,4.12-.42,3.47,2.52a11.47,11.47,0,0,0,1,7.18C834.07,106.53,831.45,111.51,829.53,116.58Z"/><path class="cls-14" d="M965.2,424.83c3.29.79,5.31,5.39,4.83,10.1a138.69,138.69,0,0,0-.59,26.55,63.49,63.49,0,0,0,2.08,10.95c1.22,4.37-.07,6.87-3.33,9.15a64.21,64.21,0,0,1-33,4.19c-.88-2.59-2.69-5.24.81-7.44.38-.24.42-1.87,0-2.36-3-3.58-.62-6.36,1.19-9.26,2.15.22,3.18-.94,4.09-2.78,5.77-11.63,12.44-22.78,18.38-34.33C960.86,427.34,961.76,424.56,965.2,424.83Z"/><path class="cls-8" d="M897,331.79c3.54,3,6.15,7.65,6.11,11.2-.1,10.39.15,20.82-.63,31.16-.26,3.51-1.22,6.71.84,9.88-.12,2.28-2.15,2.81-3.62,3.66-6.43,3.7-12.94,7.27-19.39,11-1.49.85-3.06,2.13-5,1,0-1.65,1.48-2.18,2.55-2.8,2.95-1.71,2.71-4.13,2-6.89-2.06-8.19-3.12-16.46-1.13-24.82a17.38,17.38,0,0,0-.08-8.8c-.68-2.55-2-3.67-4.55-3.56A70.76,70.76,0,0,1,897,331.79Z"/><path class="cls-14" d="M931.4,346.21c.53-2.9,1.56-5.58-.32-8.71-.69-1.13-1.35-4,1.41-6.56,3.24-3-.4-7.44-2.27-11,11.53-2.25,22.82-.91,34,2.23,6.09,4.36,6.06,10.21,3.09,16-1.41,2.76,1.72,3.08,1.39,4.4a16.27,16.27,0,0,0,0,7.91c1.5,7.62.48,15.75.4,23.68,0,.55-.59,1.1-.91,1.66-2.43-3.9,0-8.06-.57-12.14a24.39,24.39,0,0,1-.09-7.9c-.55,4.25.64,10.06-.27,15.83-.23,1.43-.29,3,.94,4.2.71,4.82-3.15.56-4.11,2.06-3.24.12-3.89-2.64-5-4.7-6.59-12-13.36-23.94-20.15-36C935.41,339.46,936,345.05,931.4,346.21Z"/><path class="cls-12" d="M902.25,79.25a18.67,18.67,0,0,1-2.79-.94c-3.28-1.69-4,0-4.24,2.9-.55,6.31,1.29,12.47,1,18.75-.14,3.62,0,7.21-.79,10.84a14.68,14.68,0,0,0,.82,8.74c1.35,3.47,2.39,7.28-.79,10.58-2.87-24.56-15-42.28-38.22-51.85a4.85,4.85,0,0,1,1.47-4.57c3.92-3.82,3.62-8.24,2.2-13-.88-2.91-1.67-5.88,1.32-8.2C878.61,56.94,891.73,66.14,902.25,79.25Z"/><path class="cls-2" d="M752.62,147.09c-3.42-2.72-3.38-6.94-3.6-10.51-.89-14.13-1.83-28.21,3.15-42.1,2.56-7.14,1.68-15-1.37-22.25-1.26-3-1.77-5.55-.18-8.51s.73-6.21.72-9.33c0-2.18-1.41-2.41-3.06-1.32-1.08.72-1.82,2-3.31,2.07,10.29-12,23-20.68,37.45-26.84,1.63-.36,3.31-2.17,4.9-.33s.42,3.52-.58,5c-2,2.9-1.92,5.84-.62,8.9a9.22,9.22,0,0,1-1.7,10.51c-17,13.32-28.69,30.08-33.28,51.43a87.75,87.75,0,0,0,.66,39.42C752.11,144.51,752.35,145.81,752.62,147.09Z"/><path class="cls-12" d="M895.52,139.18c4.9,4.41,3,10.19,2.33,15.2-1.65,13.46-.49,26.88-.42,40.31,0,.52.7,1,1.08,1.56a84.62,84.62,0,0,1-32.33,23.51c-2.15-.24-2.91-1.4-2.08-3.4a23.78,23.78,0,0,0-.62-20.49,6.41,6.41,0,0,1-.36-3.88c13.87-9.24,24.52-21,29.32-37.37A77.36,77.36,0,0,0,895.52,139.18Z"/><path class="cls-2" d="M760.21,204.18c2.69.58,4.51.22,4.23-3.26-.27-3.26.26-6.52-1.35-9.71A6.59,6.59,0,0,1,764.5,183c1.7-1.65,2.91-4.12.81-5.6-3.42-2.44-2.34-5.3-1.91-8.28,10.12,13.53,22.92,23.48,39,29.09a5.39,5.39,0,0,1,1.57,4.55c-.45,5.94-2,11.76-1.65,17.82.12,2-.75,4.5-4,3.51l0,0c-2-1.74-4.74-1-6.92-2.08A84.15,84.15,0,0,1,760.21,204.18Z"/><path class="cls-2" d="M790.09,176.25c3.63.24,5.16-1.08,5.49-5.09.41-4.86,1.06-9.9,3.88-14.22a3.35,3.35,0,0,0-.65-4.85c-1.24-1.1-2.65-2.21-1.31-4.15,8.42,9.51,18.84,14.51,31.67,14.12,3.81-.75,4.86,1.65,4.39,4.55-.77,4.74-.43,9.5-.8,14.24-.45,5.94-.62,6.3-6.39,7C813,187.94,800.73,184.67,790.09,176.25Z"/><path class="cls-2" d="M798.39,94.27c-2.87-2.24-3.56-4.71-1.17-7.83.85-1.11,1.92-3,.48-4-4.49-3.06-3.41-7.55-3.23-11.65.17-3.89-1.35-5.06-4.89-4.44a64.8,64.8,0,0,1,31.74-15.1c3.21-1.26,4.42.66,5.49,3.23a30.23,30.23,0,0,1,.54,21.81A56.54,56.54,0,0,0,798.39,94.27Z"/><path class="cls-14" d="M827.35,76.28c-.26-1.43-1.16-3.15-.67-4.24,2.77-6.18.25-11.79-1.23-17.61-.64-2.5-1.93-3.2-4.13-3.19a73,73,0,0,1,40.95,1.31,11.36,11.36,0,0,0-.06,8.16c1.81,5,2.34,10-2.63,13.89-1.07.85-1.55,2.43-2.3,3.67-6.85-1.27-13.55-3.62-20.67-2.9Z"/><path class="cls-15" d="M863.12,192c4.32,8.08,6.71,16.32,1.79,25-.94,1.67.69,1.89,1.27,2.72-11.23,4.39-22.61,8.11-34.86,8.14-2.4-3.75-1.69-7.64-.09-11.31,2.18-5,2.34-9.82-.21-14.68,8.72-1.42,17.45-2.83,25.51-6.75C858.72,194.09,860.92,193,863.12,192Z"/><path class="cls-11" d="M914.14,199.87c.51,1.38.93,2.8,1.55,4.12a3,3,0,0,1-.86,4c-1.37,1.21-1.88,0-2.72-.82-1.57-1.44-2.64-.15-2.61,1.15.07,2.41-.11,6,1.27,7,3,2,3.07,5.42,5.34,7.51-11.76,12.43-25.89,21.19-41.88,27.08-6.07-3.59-7.22-10.16-3-16.85A121.14,121.14,0,0,0,914.14,199.87Z"/><path class="cls-15" d="M826.37,187.89c4.29-.67,4.92-3.37,5.15-7.33.27-4.67-.94-9.42,1-14.08,1-2.43-.79-4-3.31-4.42,9.75-1.78,18.21-5.61,23.31-14.71,1.11-2,2-4.09,3-6.14a29.56,29.56,0,0,1,4.39,19.52c-.58,5.47-1,10.83.43,16.19C850.25,184.53,838.84,187.83,826.37,187.89Z"/><path class="cls-2" d="M831,201.91c3.13,1.58,5.27,9,2.7,12.74-2.93,4.3-2.16,8.75-2.4,13.25-11.22.61-22.29,0-33-3.78a2.86,2.86,0,0,0,2.79-3c-1.44-7.76,2.48-15.18,1.26-22.89A102.73,102.73,0,0,0,831,201.91Z"/><path class="cls-2" d="M784.42,52.38c1.64-4.14,1.82-8.28-.25-12.32-1.32-2.59-.56-4.77,1-6.93.92-1.32,2.53-2.66,1.75-4.34-1-2.13-3,.16-4.45-.49a94,94,0,0,1,35.94-9.92,6.55,6.55,0,0,1,4,6.74,21.94,21.94,0,0,0,2,11.05A103.1,103.1,0,0,0,784.42,52.38Z"/><path class="cls-14" d="M829.53,116.58a4.49,4.49,0,0,1,.35-5.12c2.18-3.24,1.77-6.52.67-9.88-.93-2.82-3-5.26-.83-8.67,1.15-1.84-1.43-1.38-2.48-1.73,9.19-3.57,18.17-2.43,27.06,1.15-.8,2.1-.25,4.09.16,6.23,1.59,8.26.57,16.47-1.1,24.61C845.43,113.44,839.78,111.88,829.53,116.58Z"/><path class="cls-11" d="M926.17,63.38c-5.1,3.19-5.15,9.21-7.74,13.81a108.49,108.49,0,0,0-29.15-28,9.74,9.74,0,0,1-2.45-7.32c.1-5.54.76-6.39,6.39-7.4A101.51,101.51,0,0,1,926.17,63.38Z"/><path class="cls-14" d="M824.29,36.17c-2.74-2.26-4.78-4.38-3.16-8.65,1.18-3.15-.74-6.4-2.77-9.14,12.82-2.15,25.49-1.24,38.07,1.74.88,3.91.12,7.94.87,11.88.34,1.76-.7,3.19-2,4.35A121.91,121.91,0,0,0,824.29,36.17Z"/><path class="cls-12" d="M855.3,36.35c1-2.69.65-5.32.15-8.11s-.65-5.58,1-8.12c13.41,1.86,25.31,7.6,36.79,14.39-5.6,4.09-6.21,6.39-3.94,14.72A115.94,115.94,0,0,0,855.3,36.35Z"/><path class="cls-15" d="M871.27,233c-1.62,6.07-2.36,12,3,16.85C863.3,254,852.13,257,840.31,257c-2.81-2.25-2.48-5.66-2.95-8.67a9.92,9.92,0,0,0-3.26-6.4A150.13,150.13,0,0,0,871.27,233Z"/><path class="cls-2" d="M800.2,253.15a105.18,105.18,0,0,1-43.09-21.93c3.3-2.06,4.83,1.76,7.69,2.25a31.71,31.71,0,0,1-6.39-12.27c7.15,3.36,13.57,8.09,20.89,11.18,7.5,3.17,15.32,5.28,23.1,7.53,2.32,1.06,4.68,2.26,4,5.37C805.6,248.8,804.71,252.46,800.2,253.15Z"/><path class="cls-14" d="M800.2,253.15c2.17-1.14,3-3.39,4.19-5.29,2-3.24.84-5.84-2-8,10.53,1.29,21.05,2.65,31.7,2,2.88-.11,4.28.78,4.36,4.15.08,3.65,1.19,7.28,1.85,10.92A95.59,95.59,0,0,1,800.2,253.15Z"/><path class="cls-2" d="M758.41,221.2c4,3.06,3.29,9.42,8.28,11.88.71.35.54,1.49-.19,2.16-1,.91-1.78.39-2.63-.24-2.08-1.55-3.81-3.77-6.76-3.78-23-18-36.84-41.55-43.13-69.93,1.5-.45,1.35.44,1.58.87a8.76,8.76,0,0,1,.6,1.37,116.2,116.2,0,0,0,38.76,54.34C756.17,218.86,757.25,220.08,758.41,221.2Z"/><path class="cls-1" d="M519.72,57.13c-.11.95.15,2.39-.86,2.62a22.36,22.36,0,0,1-11.57-.11,4.06,4.06,0,0,1-2.07-3.11c-.05-2.07,2.61-.63,3.39-2C512.13,56.21,515.92,56.69,519.72,57.13Z"/><path class="cls-1" d="M701.58,586.63c-1.57,1.48-3.23,3-5.45,1.38-1-.76-.7-2.08-.15-3.13,1.59-3,4-2,6.34-1.25C702.35,584.69,702.5,585.79,701.58,586.63Z"/><path class="cls-2" d="M41.1,314.66c-.11,4.21-.78,8.2-4.15,11.2C38.3,322.11,39,318.11,41.1,314.66Z"/><path class="cls-6" d="M1019.78,818.24c-1.29-4.24-.6-8.54-.41-12.82,0-.07.25-.17.37-.16a1.34,1.34,0,0,1,.44.2Q1020,811.85,1019.78,818.24Z"/><path class="cls-6" d="M1017.76,855.17c-1.25-3.89-.58-7.86-.39-11.8,0-.07.24-.18.36-.17a1.54,1.54,0,0,1,.44.19Q1018,849.29,1017.76,855.17Z"/><path class="cls-6" d="M1021.85,780.32c-1.43-3.91-.67-7.9-.44-11.87,0-.06.26-.14.39-.12a1.35,1.35,0,0,1,.43.22Q1022,774.45,1021.85,780.32Z"/><path class="cls-4" d="M59.19,243c-.18,3.11.88,6.48-1.94,9A25.85,25.85,0,0,1,59.19,243Z"/><path class="cls-2" d="M246.57,714.6c3.31-.21,6.64-.5,9.39,1.95A25.48,25.48,0,0,1,246.57,714.6Z"/><path class="cls-2" d="M32.25,340c-.12,3.3-.51,6.5-3.22,8.87Q30.65,344.41,32.25,340Z"/><path class="cls-2" d="M791.43,222.06c2.41.37,5.37-1.13,6.92,2.08A12,12,0,0,1,791.43,222.06Z"/><path class="cls-1" d="M582.66,680.32a10.36,10.36,0,0,1,7.4-3.67A20,20,0,0,1,582.66,680.32Z"/><path class="cls-2" d="M255.91,716.52c3.18-.09,6.42-.38,9,2C261.85,718.24,258.76,717.91,255.91,716.52Z"/><path class="cls-16" d="M647.5,381q6.21,3.48,12.41,7c.82.47,2,.68,2.06,1.87s-.92,1.45-1.87,1.93c-3.9,2-7.71,4.11-11.56,6.19Q629,408.92,609.38,419.84a31.29,31.29,0,0,0-2.8,2c-14,7.11-27.67,14.62-41,22.82-13,6.42-25.56,13.5-38,20.95-12.93,6.52-25.5,13.67-37.93,21.08-3.89,1.06-6.41,3.52-8.28,7.14-6.19,12-12.61,23.88-19,35.81-2.93,5.25-5.6,10.64-8.3,16-3,5.92-6.75,11.59-9.93,17.51-3.82,7.14-7.52,14.34-11.28,21.52q-15,27.61-30.05,55.23c-1.89,3.48-3.67,7-5.51,10.53-3.54,6.27-7.08,12.53-11,19.47-3.93-6.94-7.67-13.46-11.31-20q-18.37-33.12-36.71-66.25a17,17,0,0,0-1.5-1.93,3.37,3.37,0,0,1-1.73-3.08,87.27,87.27,0,0,0-8.25-14.93h0l-30.62-55.8a15.88,15.88,0,0,1-1.42-2.62c-4.52-13.6-15.63-19.78-27.79-24.8-23.14-12.91-46.37-25.67-70-37.63-17.58-9.61-35.11-19.33-52.77-28.8-10.94-5.86-21.61-12.26-32.95-17.37l-4.55-3.36,51.44-29c12-5.76,23.12-13,34.69-19.47l7.13-4c7.68-3.13,14.64-7.63,21.86-11.63C233,323,244,316.83,255,310.68c7.39-4.08,14.61-8.56,22.24-12.14,6.39-3,10.41-7.57,13.34-13.82,3.8-8.08,8.2-15.88,12.34-23.79,8.32-15.21,16.71-30.39,24.94-45.64,6.12-11.34,12-22.78,18.05-34.17q17-31.23,33.93-62.47a4,4,0,0,0,.17-1.46l1.6-2c2.65-2.08,3.67-1.4,4.5,3,8.68,15.85,17.3,31.73,26.06,47.53q34.29,61.79,68.67,123.53c.81,1.45,1.39,3,3,3.86,15.63,8.29,30.89,17.26,46.86,24.9a3.09,3.09,0,0,1,3,1.8,10.22,10.22,0,0,0,4.9,2.4c9.23,6.22,19.35,10.86,29.11,16.12,11.64,6.27,22.91,13.25,35,18.58C617.45,365.33,632.4,373.31,647.5,381Z"/><path class="cls-1" d="M386.09,118.15c-1.86-.46-.65-5.52-4.5-3-1-2.46.56-3.13,2.3-2.66a37.36,37.36,0,0,0,4.75.59A5.81,5.81,0,0,1,386.09,118.15Z"/><path class="cls-1" d="M533.7,319.77l-3-1.8c.58-1,1.17-2.23,2.62-1.54C535,317.25,534.37,318.55,533.7,319.77Z"/><path class="cls-4" d="M335.15,578.58a4.66,4.66,0,0,1,1.73,3.08c-.49,2.41-2.2,2.54-3.52,1.23s-3.41-2.74-1.92-4.95C332.8,575.91,333.82,578.73,335.15,578.58Z"/><path class="cls-4" d="M326.9,563.65c-.08,1.49.07,3.34-2.29,2.67a2.26,2.26,0,0,1-1.51-3.19c1.48-2.79,2.48.55,3.8.52Z"/><path class="cls-4" d="M346.73,605.06c-.14.92-.65,1.47-1.62,1.35a2.16,2.16,0,0,1-2.05-2.27,1.29,1.29,0,0,1,1.59-1.35A2.28,2.28,0,0,1,346.73,605.06Z"/><path class="cls-4" d="M306.79,530.41c-.22,1-.61,1.94-1.86,1.83-.81-.06-.94-.79-.81-1.48a1.83,1.83,0,0,1,1.56-1.66C306.56,529,306.7,529.7,306.79,530.41Z"/><path class="cls-17" d="M993.07,758.16a139.2,139.2,0,0,0-16.73,9.27A211,211,0,0,0,955,779.3q-13.75,7.49-27.51,15a4.67,4.67,0,0,0-2.15,3.09c-7.42,12.75-14.26,25.83-21,39l-.4.9c.38,2.89-1.72,4.38-3.44,6.08-4.7,8.6-9.36,17.23-14.17,25.77-.56,1-.4,3.91-3.09,2.09-4.46-8.29-8.84-16.62-13.39-24.87-8.67-15.68-17.5-31.28-26.08-47-1.78-3.26-4-5.57-7.51-6.63l-32-17.19c-9.84-5.63-19.7-11.21-30-16.08l-10-5.89c.52-1.88,2.58-1.59,3.29-2.92l15.66-8.46,23-12.88,20-11c13.31-4.71,19.87-15.53,25-27.65q14.49-26.71,29-53.43c.85-1.56,1.42-3.3,2.91-4.45q20.63,37.27,41.22,74.57c2.57,4.66,7.58,5.32,11.66,7.51,12.15,7,24.4,13.78,37,19.92a288.43,288.43,0,0,0,26,13.94c.9-.1,1.64.06,1.85,1.11,3.33,1.71,1.54,3.52-.38,4.25C997.82,755,995.65,756.91,993.07,758.16Z"/><path class="cls-2" d="M1001,749.72l-1.85-1.11c-.08-1-1.43-2.06,0-2.91a2.07,2.07,0,0,1,1.76.28C1002.66,747.14,1001.51,748.45,1001,749.72Z"/><path class="cls-7" d="M900.57,843.3c1-2.09,1.76-4.35,3.44-6.08C906.71,841.42,902.81,841.89,900.57,843.3Z"/><path class="cls-17" d="M931.4,346.21c3.06-3.31,4.22-7.77,7.25-11.91,5.86,10.47,11.46,20.74,17.34,30.85,2.53,4.35,3.94,9.45,8.08,12.79,9.6,6,19.73,11,29.86,16.07l12.14,7.22c-3.88,3.85-9.2,4.95-13,8.39-9.6,4.53-18.72,9.93-27.91,15.21-2.13.84-3.1,2.58-4.13,4.55-6.59,12.54-13.47,24.92-20,37.49-1.84,3.55-2.62,1-3.85-.16-7.1-13.08-13.92-26.34-21.49-39.15-2.5-4.24-8-5.49-12.51-7.54-7.77-4.74-15.81-9-24-13l-7.57-4.47c.65-1.66,2.54-1.75,3.58-2.89,9.56-4.83,18.88-10.1,28-15.66,7-2.77,12.75-6.63,15.93-14.17C922.67,361.71,927.3,354.07,931.4,346.21Z"/><path class="cls-11" d="M967.43,478.48V463.81h.5v14.7Z"/><path class="cls-11" d="M968.18,375.88c-2.16-.22-2.3-1.92-1.94-3.33,1.75-6.72-.55-13.66,1.93-20.37v23.71Z"/><path class="cls-18" d="M386.2,641.45c-9.09-16.35-18.05-32.42-27-48.52Q329,538.53,298.94,484.07c-1.65-3-4.06-4.65-6.85-6.15L137.77,394.86l-2.84-1.6C140.67,390,146,387,151.39,384q71-39.4,141.93-78.74a9.75,9.75,0,0,0,3.95-4.22q41.63-77.4,83.33-154.74c.7-1.29,1.43-2.56,2.53-4.53,5.29,9.46,10.26,18.33,15.2,27.22q36.15,65.07,72.24,130.17a12.85,12.85,0,0,0,5.44,5.41q77.82,41.82,155.56,83.78c.82.44,2,.54,2.27,2.14l-51.09,28.4q-53.29,29.61-106.62,59.18a10.51,10.51,0,0,0-4.24,4.65q-41.67,77.53-83.42,155.06C387.86,638.93,387.11,640,386.2,641.45Z"/><path class="cls-18" d="M883.24,660.92c10.56,19,20.69,37.05,30.64,55.22a13.46,13.46,0,0,0,5.83,5.74c18.43,9.83,36.8,19.77,55.76,30l-35.36,19.69c-7.82,4.36-17,7.4-23.05,13.48s-8.81,15-13,22.74c-6.41,11.8-12.8,23.61-19.33,35.66-2.63-2.1-3.62-5.16-5.1-7.79q-13.18-23.42-26.07-47a12.72,12.72,0,0,0-5.45-5.44c-17.71-9.42-35.31-19-52.94-28.59-.86-.46-1.67-1-2.78-1.69,18.47-10.26,36.65-20.42,54.91-30.45a13.58,13.58,0,0,0,5.85-5.77c8.63-16.26,17.39-32.45,26.11-48.65C880.42,665.91,881.64,663.79,883.24,660.92Z"/><path class="cls-8" d="M978.44,401.6c-7.89,4.38-15.06,8.47-22.33,12.36a11.49,11.49,0,0,0-5,5.2c-3.69,7.17-7.63,14.21-11.88,22.06-4.31-7.75-8.3-14.74-12.09-21.83a11.87,11.87,0,0,0-5.09-5.21c-7.31-3.85-14.56-7.81-22.45-12.06,6.52-3.59,12.51-7.05,18.66-10.23,4.55-2.34,8-5.36,10.16-10.22,2.92-6.45,6.69-12.51,10.3-19.11,4.27,7.6,8.45,14.75,12.3,22.07a11.41,11.41,0,0,0,5.13,5.06C963.31,393.44,970.44,397.31,978.44,401.6Z"/></g></g></svg>